<svg width="241" height="60" viewBox="0 0 241 60" fill="none" xmlns="http://www.w3.org/2000/svg">
<rect width="4.83871" height="60" fill="#222222"/>
<rect x="33.8711" width="5.80645" height="60" fill="#222222"/>
<rect x="73.5469" width="5.80645" height="60" fill="#222222"/>
<rect x="204.195" width="5.80645" height="60" fill="#222222"/>
<rect x="234.195" width="5.80645" height="60" fill="#222222"/>
<rect x="108.387" width="5.80645" height="60" fill="#222222"/>
<rect x="116.129" width="5.80645" height="60" fill="#222222"/>
<rect x="167.418" width="5.80645" height="60" fill="#222222"/>
<rect x="146.129" width="5.80645" height="60" fill="#222222"/>
<rect x="6.77344" width="2.90323" height="60" fill="#222222"/>
<rect x="229.355" width="2.90323" height="60" fill="#222222"/>
<rect x="29.0312" width="2.90323" height="60" fill="#222222"/>
<rect x="58.0664" width="2.90323" height="60" fill="#222222"/>
<rect x="68.7109" width="2.90323" height="60" fill="#222222"/>
<rect x="199.355" width="2.90323" height="60" fill="#222222"/>
<rect x="103.547" width="2.90323" height="60" fill="#222222"/>
<rect x="175.164" width="2.90323" height="60" fill="#222222"/>
<rect x="132.582" width="2.90323" height="60" fill="#222222"/>
<rect x="137.418" width="2.90323" height="60" fill="#222222"/>
<rect x="15.4844" width="7.74194" height="60" fill="#222222"/>
<rect x="44.5156" width="8.70968" height="60" fill="#222222"/>
<rect x="218.711" width="8.70968" height="60" fill="#222222"/>
<rect x="87.0977" width="8.70968" height="60" fill="#222222"/>
<rect x="153.871" width="10.6452" height="60" fill="#222222"/>
<rect x="182.902" width="10.6452" height="60" fill="#222222"/>
</svg>
