<svg width="22" height="56" viewBox="0 0 22 56" fill="none" xmlns="http://www.w3.org/2000/svg">
<rect x="22" width="2.82258" height="22" transform="rotate(90 22 0)" fill="#323232"/>
<rect x="22" y="19.7588" width="3.3871" height="22" transform="rotate(90 22 19.7588)" fill="#323232"/>
<rect x="22" y="42.9014" width="3.3871" height="22" transform="rotate(90 22 42.9014)" fill="#323232"/>
<rect x="22" y="3.95117" width="1.69355" height="22" transform="rotate(90 22 3.95117)" fill="#323232"/>
<rect x="22" y="16.9355" width="1.69355" height="22" transform="rotate(90 22 16.9355)" fill="#323232"/>
<rect x="22" y="33.8721" width="1.69355" height="22" transform="rotate(90 22 33.8721)" fill="#323232"/>
<rect x="22" y="40.0811" width="1.69355" height="22" transform="rotate(90 22 40.0811)" fill="#323232"/>
<rect x="22" y="9.03223" width="4.51613" height="22" transform="rotate(90 22 9.03223)" fill="#323232"/>
<rect x="22" y="25.9678" width="5.08065" height="22" transform="rotate(90 22 25.9678)" fill="#323232"/>
<rect x="22" y="50.8076" width="5.08065" height="22" transform="rotate(90 22 50.8076)" fill="#323232"/>
</svg>
