<svg width="36" height="36" viewBox="0 0 36 36" fill="none" xmlns="http://www.w3.org/2000/svg">
<path d="M17.9992 34.7999C27.2776 34.7999 34.7992 27.2783 34.7992 18C34.7992 8.72157 27.2776 1.19995 17.9992 1.19995C8.72084 1.19995 1.19922 8.72157 1.19922 18C1.19922 27.2783 8.72084 34.7999 17.9992 34.7999Z" fill="url(#paint0_radial_950_10648)"/>
<path d="M12.9188 17.2765C12.8826 17.2617 12.848 17.2432 12.8156 17.2213C12.7363 17.1592 12.6534 17.1019 12.5672 17.0497L12.1772 16.7893C11.1908 16.1053 10.2344 15.2881 9.58044 14.2693C8.92644 13.2505 8.63844 11.8861 9.56484 10.9261C10.4912 9.96607 12.1328 10.0729 12.9248 11.1421C13.7096 10.0729 15.3608 9.97567 16.2776 10.9261C17.1944 11.8765 16.9184 13.2505 16.262 14.2693C15.6056 15.2881 14.6516 16.1041 13.6652 16.7893C13.454 16.9357 13.2296 17.0641 13.0256 17.2213C12.9916 17.2425 12.9559 17.261 12.9188 17.2765V17.2765Z" fill="#F74D2B"/>
<path d="M23.0806 17.2765C23.1168 17.2617 23.1513 17.2432 23.1838 17.2213C23.2631 17.1592 23.346 17.1019 23.4322 17.0497L23.8222 16.7893C24.8086 16.1053 25.765 15.2881 26.419 14.2693C27.073 13.2505 27.361 11.8861 26.4346 10.9261C25.5082 9.96607 23.8666 10.0729 23.0806 11.1421C22.2958 10.0729 20.6446 9.97567 19.7278 10.9261C18.811 11.8765 19.087 13.2505 19.7434 14.2693C20.3998 15.2881 21.3538 16.1041 22.3402 16.7893C22.5514 16.9357 22.7758 17.0641 22.9798 17.2213C23.0119 17.2422 23.0456 17.2607 23.0806 17.2765V17.2765Z" fill="#F74D2B"/>
<path d="M28.6066 21.2639C28.6475 21.0343 28.6418 20.7989 28.5898 20.5715C28.6418 20.7989 28.6475 21.0343 28.6066 21.2639V21.2639Z" fill="white"/>
<path d="M7.52734 20.2608C7.54294 20.2248 7.55974 20.1876 7.57894 20.1516C7.55974 20.1876 7.54294 20.2248 7.52734 20.2608Z" fill="white"/>
<path d="M7.65935 20.0136C7.67135 19.9944 7.68335 19.9776 7.69655 19.9596C7.70975 19.9416 7.73615 19.9044 7.75775 19.878C7.77935 19.8516 7.79135 19.8348 7.80935 19.8144C7.82735 19.794 7.85975 19.758 7.88615 19.7316C7.91255 19.7052 7.91375 19.7016 7.92935 19.6884C7.96295 19.656 7.99775 19.6248 8.03375 19.596L8.07815 19.5612C8.11775 19.5312 8.15735 19.5036 8.19815 19.4772L8.23655 19.4544C8.27735 19.4292 8.32055 19.4052 8.36375 19.3836L8.39015 19.3704C8.4383 19.3475 8.48756 19.3271 8.53775 19.3092L8.57015 19.2972C8.62295 19.2792 8.67575 19.2636 8.73095 19.2504L8.76455 19.242C8.82095 19.23 8.87735 19.2204 8.93495 19.2132H8.96255C9.02469 19.2059 9.08719 19.2023 9.14975 19.2024C12.0919 19.5155 15.0482 19.6758 18.0069 19.6824C20.9653 19.6757 23.9212 19.5155 26.8629 19.2024V19.2024C26.9255 19.2023 26.988 19.2059 27.0501 19.2132H27.0777H27.0501C26.988 19.206 26.9255 19.2024 26.8629 19.2024V19.2024C23.9208 19.5155 20.9645 19.6758 18.0057 19.6824C15.0474 19.6757 12.0915 19.5155 9.14975 19.2024C9.08719 19.2023 9.02469 19.2059 8.96255 19.2132H8.93495C8.87735 19.2204 8.82095 19.23 8.76455 19.242L8.73095 19.2504C8.67575 19.2636 8.62295 19.2792 8.57015 19.2972L8.53775 19.3092C8.48756 19.3271 8.4383 19.3475 8.39015 19.3704L8.36375 19.3836C8.32055 19.4052 8.27735 19.4292 8.23655 19.4544L8.19815 19.4772C8.15735 19.5036 8.11775 19.5312 8.07815 19.5612L8.03375 19.596C7.99775 19.6248 7.96295 19.656 7.92935 19.6884C7.91407 19.7019 7.89964 19.7163 7.88615 19.7316C7.85975 19.758 7.83455 19.7856 7.80935 19.8144C7.78415 19.8432 7.77455 19.8564 7.75775 19.878C7.74095 19.8996 7.71575 19.932 7.69655 19.9596C7.67735 19.9872 7.67135 19.9944 7.65935 20.0136C7.64735 20.0304 7.63775 20.0496 7.62695 20.0676C7.63775 20.0496 7.64735 20.0304 7.65935 20.0136V20.0136Z" fill="white"/>
<path d="M28.4824 20.2524C28.5004 20.2932 28.516 20.3352 28.5304 20.3724C28.516 20.334 28.5004 20.2932 28.4824 20.2524Z" fill="white"/>
<path d="M28.4062 20.1023C28.4207 20.1275 28.4327 20.1539 28.4459 20.1791C28.4327 20.1539 28.4207 20.1275 28.4062 20.1023Z" fill="white"/>
<path d="M28.543 20.4084C28.5607 20.4596 28.5755 20.5117 28.5874 20.5644C28.5755 20.5117 28.5607 20.4596 28.543 20.4084V20.4084Z" fill="white"/>
<path d="M7.4569 20.4456C7.37428 20.7115 7.357 20.9935 7.4065 21.2676V21.2676C7.35761 20.9935 7.37489 20.7116 7.4569 20.4456V20.4456Z" fill="white"/>
<path d="M7.45898 20.4385C7.47458 20.3905 7.49138 20.3425 7.51058 20.2957C7.49138 20.3425 7.47458 20.3905 7.45898 20.4385Z" fill="white"/>
<path d="M27.6585 20.4889C27.6477 20.4733 27.6393 20.4565 27.6285 20.4409L27.5961 20.3977L27.5685 20.3641L27.5277 20.3197L27.5193 20.3113L27.5037 20.2957C27.4881 20.2813 27.4701 20.2645 27.4485 20.2477L27.4257 20.2297C27.4029 20.2129 27.3837 20.1985 27.3657 20.1877L27.3465 20.1757L27.2793 20.1385L27.2637 20.1313C27.2393 20.1192 27.214 20.1087 27.1881 20.1001L27.1701 20.0929C27.1449 20.0845 27.1173 20.0761 27.0873 20.0689H27.0693C27.042 20.0622 27.0144 20.057 26.9865 20.0533H26.9661C26.9433 20.0533 26.9229 20.0533 26.9049 20.0533C23.9503 20.3658 20.9816 20.526 18.0105 20.5333C15.0395 20.5241 12.0709 20.3639 9.11613 20.0533C9.09534 20.0522 9.07451 20.0522 9.05373 20.0533H9.03333C9.00546 20.057 8.97782 20.0622 8.95053 20.0689H8.93133C8.90373 20.0761 8.87733 20.0833 8.85333 20.0917L8.83173 20.1001C8.80173 20.1109 8.77773 20.1205 8.75733 20.1301L8.74053 20.1385C8.72013 20.1481 8.69853 20.1613 8.67453 20.1757L8.65533 20.1865C8.63493 20.1993 8.6153 20.2134 8.59653 20.2285C8.58763 20.2342 8.5792 20.2406 8.57133 20.2477C8.55093 20.2633 8.53293 20.2801 8.51613 20.2957L8.50173 20.3101L8.49333 20.3185C8.48013 20.3329 8.46573 20.3473 8.45373 20.3629L8.42493 20.3965L8.39253 20.4397L8.38173 20.4553L8.37213 20.4697L8.36133 20.4877C8.40278 20.5023 8.44293 20.5203 8.48133 20.5417C11.8941 22.4725 17.0745 22.3417 18.0117 22.3417C18.9489 22.3417 24.1317 22.4689 27.5433 20.5417C27.5801 20.5207 27.6186 20.5031 27.6585 20.4889V20.4889Z" fill="white"/>
<path d="M7.58008 20.1516C7.59448 20.1228 7.61248 20.0952 7.62808 20.0676C7.61248 20.094 7.59448 20.1228 7.58008 20.1516Z" fill="#FF7133"/>
<path d="M28.4453 20.1792C28.4573 20.2044 28.4705 20.2272 28.4825 20.2524C28.4705 20.2272 28.4573 20.2044 28.4453 20.1792Z" fill="#FF7133"/>
<path d="M7.51172 20.2955C7.51172 20.2835 7.52372 20.2727 7.52852 20.2607C7.52372 20.2727 7.51652 20.2835 7.51172 20.2955Z" fill="#FF7133"/>
<path d="M28.5312 20.3772C28.5312 20.388 28.5396 20.3988 28.5432 20.4084C28.5396 20.3976 28.5348 20.388 28.5312 20.3772Z" fill="#FF7133"/>
<path d="M28.6019 21.3024C28.1152 23.7544 26.793 25.9617 24.8607 27.5478C22.9284 29.1339 20.5057 30.0006 18.0059 30V30C20.5055 30.0003 22.9279 29.1335 24.86 27.5475C26.792 25.9614 28.1141 23.7542 28.6007 21.3024V21.3024V21.2892C28.6007 21.282 28.6007 21.2748 28.6007 21.2676C28.6016 21.2792 28.602 21.2908 28.6019 21.3024V21.3024Z" fill="#FF7133"/>
<path d="M7.4106 21.3024C7.4106 21.2916 7.4106 21.2796 7.4106 21.2676C7.41001 21.2748 7.41001 21.282 7.4106 21.2892V21.3024C7.8972 23.7542 9.21924 25.9614 11.1513 27.5475C13.0833 29.1335 15.5057 30.0003 18.0054 30V30C15.5057 30.0003 13.0833 29.1335 11.1513 27.5475C9.21924 25.9614 7.8972 23.7542 7.4106 21.3024Z" fill="#FF7133"/>
<path d="M27.2821 19.254C27.3361 19.2669 27.3893 19.2825 27.4417 19.3008L27.4753 19.3128C27.5255 19.3307 27.5748 19.3511 27.6229 19.374L27.6493 19.3872C27.6925 19.4088 27.7357 19.4328 27.7765 19.458L27.8149 19.4808C27.8557 19.5072 27.8953 19.5348 27.9349 19.5648L27.9793 19.5996C28.0153 19.6284 28.0501 19.6596 28.0837 19.6908C28.0993 19.7052 28.1125 19.7208 28.1269 19.7352C28.1413 19.7496 28.1785 19.7892 28.2025 19.8168C28.2265 19.8444 28.2385 19.86 28.2565 19.8816C28.2745 19.9032 28.2973 19.9356 28.3165 19.9632C28.349 20.0092 28.3791 20.0568 28.4065 20.106C28.3791 20.0568 28.349 20.0092 28.3165 19.9632C28.2973 19.9356 28.2769 19.908 28.2565 19.8816L28.2037 19.8168C28.1785 19.7892 28.1533 19.7616 28.1269 19.7352C28.1005 19.7088 28.0993 19.7052 28.0837 19.692C28.0501 19.6596 28.0153 19.6284 27.9793 19.5996L27.9349 19.5648C27.8953 19.5348 27.8557 19.5072 27.8149 19.4808L27.7765 19.458C27.7357 19.4328 27.6925 19.4088 27.6493 19.3872L27.6229 19.374C27.5748 19.3511 27.5255 19.3307 27.4753 19.3128L27.4429 19.3008C27.3901 19.2828 27.3373 19.2672 27.2821 19.254L27.2485 19.2456C27.1921 19.2336 27.1357 19.224 27.0781 19.2168C27.1357 19.224 27.1921 19.2336 27.2485 19.2456L27.2821 19.254Z" fill="#FF7133"/>
<path d="M28.5879 20.5645C28.5879 20.5645 28.5879 20.5645 28.5879 20.5717C28.5879 20.5789 28.5891 20.5669 28.5879 20.5645Z" fill="#FF7133"/>
<path d="M28.602 21.3025C28.6027 21.2897 28.6027 21.2769 28.602 21.2641C28.6429 21.0345 28.6372 20.799 28.5852 20.5717C28.5852 20.5717 28.5852 20.5717 28.5852 20.5645C28.5734 20.5117 28.5586 20.4596 28.5408 20.4085C28.5408 20.3989 28.5324 20.3881 28.5288 20.3773C28.5144 20.3353 28.4988 20.2933 28.4808 20.2573C28.4628 20.2213 28.4556 20.2093 28.4436 20.1841C28.4316 20.1589 28.4184 20.1325 28.404 20.1073C28.3766 20.0581 28.3465 20.0104 28.314 19.9645C28.2948 19.9369 28.2744 19.9093 28.254 19.8829C28.2336 19.8565 28.2192 19.8397 28.2 19.8181C28.1808 19.7965 28.1508 19.7629 28.1244 19.7365C28.098 19.7101 28.0968 19.7065 28.0812 19.6921C28.0476 19.6609 28.0128 19.6297 27.9768 19.6009L27.9324 19.5661C27.8928 19.5361 27.8532 19.5085 27.8124 19.4821L27.774 19.4593C27.7332 19.4341 27.69 19.4101 27.6468 19.3885L27.6204 19.3753C27.5723 19.3524 27.523 19.332 27.4728 19.3141L27.4392 19.3021C27.3869 19.2838 27.3336 19.2682 27.2796 19.2553L27.246 19.2469C27.1896 19.2349 27.1332 19.2253 27.0756 19.2181H27.048C26.9859 19.2108 26.9234 19.2072 26.8608 19.2073V19.2073C23.9191 19.5204 20.9631 19.6806 18.0048 19.6873C15.0461 19.6807 12.0897 19.5204 9.14763 19.2073C9.08507 19.2072 9.02257 19.2108 8.96043 19.2181H8.93283C8.87523 19.2253 8.81883 19.2349 8.76243 19.2469L8.72883 19.2553C8.67363 19.2685 8.62083 19.2841 8.56803 19.3021L8.53563 19.3141C8.48544 19.332 8.43617 19.3524 8.38803 19.3753L8.36163 19.3885C8.31843 19.4101 8.27523 19.4341 8.23443 19.4593L8.19603 19.4821C8.15523 19.5085 8.11563 19.5361 8.07603 19.5661L8.03163 19.6009C7.99563 19.6297 7.96083 19.6609 7.92723 19.6933C7.91163 19.7065 7.89843 19.7221 7.88403 19.7365C7.86963 19.7509 7.83243 19.7905 7.80723 19.8193C7.78203 19.8481 7.77243 19.8613 7.75563 19.8829C7.73883 19.9045 7.71363 19.9369 7.69443 19.9645C7.67523 19.9921 7.66923 19.9993 7.65723 20.0185C7.64523 20.0353 7.63563 20.0545 7.62483 20.0725C7.61403 20.0905 7.59123 20.1277 7.57683 20.1565C7.56243 20.1853 7.54083 20.2297 7.52523 20.2657C7.52523 20.2777 7.51323 20.2885 7.50843 20.3005C7.48923 20.3473 7.47243 20.3953 7.45683 20.4433C7.45735 20.4456 7.45735 20.4481 7.45683 20.4505C7.37499 20.7153 7.35731 20.9958 7.40523 21.2689V21.2689C7.40523 21.2809 7.40523 21.2929 7.40523 21.3037C7.89183 23.7555 9.21387 25.9627 11.1459 27.5488C13.078 29.1348 15.5004 30.0016 18 30.0013C20.5011 30.0032 22.9253 29.137 24.8589 27.5506C26.7924 25.9641 28.1154 23.7558 28.602 21.3025V21.3025ZM18.006 22.3465C17.0688 22.3465 11.886 22.4737 8.47563 20.5465C8.43723 20.5251 8.39708 20.5071 8.35563 20.4925L8.36643 20.4745L8.37603 20.4601L8.38683 20.4445L8.41923 20.4013L8.44803 20.3677C8.46003 20.3521 8.47443 20.3377 8.48763 20.3233L8.49603 20.3149L8.51043 20.3005C8.52723 20.2849 8.54523 20.2681 8.56563 20.2525C8.57351 20.2454 8.58193 20.239 8.59083 20.2333C8.6096 20.2181 8.62923 20.2041 8.64963 20.1913L8.66883 20.1805C8.69283 20.1661 8.71443 20.1529 8.73483 20.1433L8.75163 20.1349C8.77203 20.1253 8.79603 20.1157 8.82603 20.1049L8.84763 20.0965C8.87163 20.0881 8.89803 20.0809 8.92563 20.0737H8.94483C8.97212 20.067 8.99977 20.0618 9.02763 20.0581H9.04803C9.06882 20.057 9.08964 20.057 9.11043 20.0581C12.0652 20.3687 15.0338 20.5289 18.0048 20.5381C20.9759 20.5308 23.9446 20.3706 26.8992 20.0581C26.9172 20.0581 26.9376 20.0581 26.9604 20.0581H26.9808C27.0087 20.0618 27.0363 20.067 27.0636 20.0737H27.0816C27.1116 20.0809 27.1392 20.0893 27.1644 20.0977L27.1824 20.1049C27.2083 20.1135 27.2336 20.124 27.258 20.1361L27.2736 20.1433L27.3408 20.1805L27.36 20.1925C27.378 20.2033 27.3972 20.2177 27.42 20.2345L27.4428 20.2525C27.4644 20.2693 27.4824 20.2861 27.498 20.3005L27.5136 20.3161L27.522 20.3245L27.5628 20.3689L27.5904 20.4025L27.6228 20.4457C27.6336 20.4613 27.642 20.4781 27.6528 20.4937C27.6113 20.508 27.5711 20.5261 27.5328 20.5477C24.12 22.4737 18.9444 22.3465 18.006 22.3465V22.3465Z" fill="#FF7133"/>
<defs>
<radialGradient id="paint0_radial_950_10648" cx="0" cy="0" r="1" gradientUnits="userSpaceOnUse" gradientTransform="translate(17.9992 18) scale(16.8)">
<stop stop-color="#FFD362"/>
<stop offset="1" stop-color="#FFCA43"/>
</radialGradient>
</defs>
</svg>
