<svg viewBox="0 0 34 34" fill="none" xmlns="http://www.w3.org/2000/svg">
<path d="M12.8333 4.49963L10.2917 7.27737H5.889C4.36125 7.27737 3.11127 8.52735 3.11127 10.0551V26.7215C3.11127 28.2493 4.36125 29.4992 5.889 29.4992H28.1109C29.6386 29.4992 30.8886 28.2493 30.8886 26.7215V10.0551C30.8886 8.52735 29.6386 7.27737 28.1109 7.27737H23.7082L21.1665 4.49963H12.8333ZM16.9999 25.3326C13.1667 25.3326 10.0556 22.2216 10.0556 18.3883C10.0556 14.555 13.1667 11.444 16.9999 11.444C20.8332 11.444 23.9443 14.555 23.9443 18.3883C23.9443 22.2216 20.8332 25.3326 16.9999 25.3326Z" fill="white"/>
<circle cx="16.9999" cy="18.3882" r="5.55547" fill="white"/>
</svg>
