<svg width="37" height="36" viewBox="0 0 37 36" fill="none" xmlns="http://www.w3.org/2000/svg">
<path d="M18.1203 34.7999C27.3987 34.7999 34.9203 27.2783 34.9203 18C34.9203 8.72157 27.3987 1.19995 18.1203 1.19995C8.84193 1.19995 1.32031 8.72157 1.32031 18C1.32031 27.2783 8.84193 34.7999 18.1203 34.7999Z" fill="url(#paint0_radial_950_10652)"/>
<path d="M18.1202 9.78597C24.1514 9.78597 29.6954 11.1576 34.0694 13.452C34.0916 13.4638 34.1169 13.4688 34.1419 13.4663C34.167 13.4639 34.1908 13.4542 34.2104 13.4383C34.23 13.4224 34.2444 13.4012 34.252 13.3771C34.2596 13.3531 34.2599 13.3274 34.253 13.3032C33.2379 9.80969 31.1163 6.74009 28.207 4.55583C25.2978 2.37157 21.7581 1.19067 18.1202 1.19067C14.4822 1.19067 10.9426 2.37157 8.03332 4.55583C5.12407 6.74009 3.00245 9.80969 1.98739 13.3032C1.98045 13.3274 1.98079 13.3531 1.98836 13.3771C1.99593 13.4012 2.01041 13.4224 2.02998 13.4383C2.04955 13.4542 2.07335 13.4639 2.09843 13.4663C2.1235 13.4688 2.14874 13.4638 2.17099 13.452C6.54499 11.1576 12.089 9.78597 18.1202 9.78597Z" fill="#A0B7DA"/>
<path d="M22.5884 16.4497C23.9801 16.4497 25.1084 15.3214 25.1084 13.9297C25.1084 12.5379 23.9801 11.4097 22.5884 11.4097C21.1966 11.4097 20.0684 12.5379 20.0684 13.9297C20.0684 15.3214 21.1966 16.4497 22.5884 16.4497Z" fill="#141414"/>
<path d="M13.6528 16.4497C15.0446 16.4497 16.1728 15.3214 16.1728 13.9297C16.1728 12.5379 15.0446 11.4097 13.6528 11.4097C12.2611 11.4097 11.1328 12.5379 11.1328 13.9297C11.1328 15.3214 12.2611 16.4497 13.6528 16.4497Z" fill="#141414"/>
<path d="M13.0866 26.8449L13.0866 26.8448L13.0811 26.8454C12.7754 26.8791 12.4675 26.8076 12.208 26.6427C12.0027 26.4893 11.9235 26.2261 11.9077 25.9379C11.8935 25.6768 11.9324 25.4173 11.9584 25.2436C11.961 25.2262 11.9635 25.2096 11.9658 25.194L11.9658 25.194C12.2118 23.5116 13.5346 22.4095 13.7225 22.2573C15.3973 20.905 17.2553 20.8 18.1212 20.8C18.9872 20.8 20.8452 20.905 22.52 22.2574L22.5202 22.2575C22.7073 22.4079 24.0306 23.5101 24.2767 25.194L24.2767 25.194C24.2789 25.2093 24.2813 25.2255 24.2839 25.2425C24.3099 25.4163 24.349 25.6775 24.3347 25.9397C24.319 26.2288 24.2396 26.4916 24.0347 26.6426C23.7752 26.8075 23.4671 26.8791 23.1614 26.8454L23.1614 26.8452L23.1562 26.8449C21.4859 26.7489 19.8038 26.6816 18.1212 26.6816C16.4385 26.6816 14.7564 26.7537 13.0866 26.8449Z" fill="#FF7133" stroke="#FF6623" stroke-width="0.2"/>
<path d="M12.8898 7.36441C13.1835 7.32088 13.4814 7.31443 13.7766 7.34521C14.9946 7.42921 15.5142 7.89361 15.8898 7.59361C15.9569 7.5341 16.0108 7.46139 16.0484 7.38003C16.086 7.29867 16.1064 7.21041 16.1082 7.12081C16.1154 6.86161 15.9462 6.66841 15.8214 6.52081C15.6598 6.34224 15.465 6.19675 15.2478 6.09241C14.9038 5.89783 14.5318 5.75739 14.145 5.67601C13.3892 5.50394 12.5993 5.55904 11.8746 5.83441C11.4229 6.01288 11.0116 6.28015 10.665 6.62041C10.4583 6.82137 10.2842 7.05336 10.149 7.30801C10.005 7.58281 9.75664 8.05681 9.96424 8.36401C10.0387 8.46814 10.1489 8.54119 10.2738 8.56921C10.5858 8.63521 10.8054 8.34601 11.2338 8.03881C11.7333 7.70198 12.2972 7.47235 12.8898 7.36441V7.36441Z" fill="#141414"/>
<path d="M23.3534 7.36441C23.0598 7.32088 22.7618 7.31443 22.4666 7.34521C21.2486 7.42921 20.729 7.89361 20.3534 7.59361C20.2864 7.5341 20.2324 7.46139 20.1948 7.38003C20.1572 7.29867 20.1369 7.21041 20.135 7.12081C20.1278 6.86161 20.297 6.66841 20.4218 6.52081C20.5835 6.34224 20.7783 6.19675 20.9954 6.09241C21.3394 5.89783 21.7114 5.75739 22.0982 5.67601C22.8541 5.50394 23.6439 5.55904 24.3686 5.83441C24.8203 6.01288 25.2316 6.28015 25.5782 6.62041C25.7849 6.82137 25.959 7.05336 26.0942 7.30801C26.2382 7.58281 26.4866 8.05681 26.279 8.36401C26.2045 8.46814 26.0943 8.54119 25.9694 8.56921C25.6574 8.63521 25.4378 8.34601 25.0094 8.03881C24.5099 7.70198 23.9461 7.47235 23.3534 7.36441V7.36441Z" fill="#141414"/>
<defs>
<radialGradient id="paint0_radial_950_10652" cx="0" cy="0" r="1" gradientUnits="userSpaceOnUse" gradientTransform="translate(18.1203 18) scale(16.8)">
<stop stop-color="#FFD362"/>
<stop offset="1" stop-color="#FFCA43"/>
</radialGradient>
</defs>
</svg>
