<svg viewBox="0 0 375 128" fill="current" xmlns="http://www.w3.org/2000/svg">
<path fill-rule="evenodd" clip-rule="evenodd" d="M-0.00772095 76.3268V160H375V67.2091C369.969 57.1855 360.608 49.6989 349.363 47.1879C347.662 20.8428 325.698 0 298.853 0C278.603 0 261.131 11.8598 253.037 28.9949C249.161 27.9189 245.075 27.3438 240.854 27.3438C224.345 27.3438 209.897 36.1429 201.967 49.2954C199.871 48.4036 197.679 47.6943 195.409 47.1876C193.708 20.8426 171.744 0 144.899 0C124.133 0 106.287 12.4725 98.4825 30.3164C93.5866 28.3975 88.2548 27.3438 82.6762 27.3438C62.8782 27.3438 46.1883 40.6156 41.0627 58.7253C37.5935 57.4747 33.8514 56.793 29.9497 56.793C16.5557 56.793 5.04315 64.827 -0.00772095 76.3268Z" />
</svg>
