<svg width="224" height="224" viewBox="0 0 224 224" fill="none" xmlns="http://www.w3.org/2000/svg">
<path fill-rule="evenodd" clip-rule="evenodd" d="M12.0138 154.339H12V129.587L23.8737 131.434C29.4734 124.394 38.2923 115.296 46.0415 107.303C51.6282 101.54 56.6589 96.3502 59.5265 92.9185L83.161 72.292C81.7504 76.4949 79.4767 87.2371 77.1177 98.3816C74.534 110.588 71.8482 123.277 70.0824 128.385C68.903 131.797 68.084 135.339 69.3293 138.506L91.5497 141.963L149.284 136.031C149.325 133.837 148.833 131.462 148.32 128.988C148.279 128.788 148.237 128.587 148.196 128.385C146.88 121.994 145.036 109.323 143.311 97.4694C141.714 86.5016 140.22 76.2345 139.341 72.292L166.774 92.9185C171.49 99.0943 184.108 114.781 198.908 130.932L212 129.587V154.339H211.986C211.522 165.184 199.633 173.279 181.974 180.137C154.951 190.632 84.439 195.699 41.7926 180.137C18.4789 171.63 11.6479 162.949 12.0138 154.339Z" fill="#4A4A4A"/>
<path d="M12 154.339H11C11 154.891 11.4477 155.339 12 155.339V154.339ZM12.0138 154.339L13.0129 154.381C13.0245 154.109 12.9244 153.844 12.7358 153.647C12.5472 153.45 12.2864 153.339 12.0138 153.339V154.339ZM12 129.587L12.1537 128.599C11.8651 128.554 11.5713 128.637 11.3495 128.827C11.1277 129.017 11 129.295 11 129.587H12ZM23.8737 131.434L23.72 132.422C24.0752 132.478 24.4326 132.338 24.6564 132.057L23.8737 131.434ZM46.0415 107.303L46.7595 107.999L46.0415 107.303ZM59.5265 92.9185L58.8689 92.1651C58.8294 92.1995 58.7927 92.237 58.7591 92.2773L59.5265 92.9185ZM83.161 72.292L84.1091 72.6102C84.2527 72.1821 84.0917 71.7109 83.7162 71.4602C83.3406 71.2096 82.8437 71.2417 82.5035 71.5386L83.161 72.292ZM77.1177 98.3816L76.1394 98.1745L77.1177 98.3816ZM70.0824 128.385L71.0275 128.712V128.712L70.0824 128.385ZM69.3293 138.506L68.3987 138.872C68.5287 139.203 68.8245 139.439 69.1756 139.494L69.3293 138.506ZM91.5497 141.963L91.396 142.951C91.4807 142.964 91.5667 142.966 91.6519 142.958L91.5497 141.963ZM149.284 136.031L149.386 137.026C149.889 136.974 150.274 136.555 150.284 136.049L149.284 136.031ZM148.32 128.988L147.341 129.191L148.32 128.988ZM148.196 128.385L147.216 128.587V128.587L148.196 128.385ZM143.311 97.4694L144.3 97.3254L143.311 97.4694ZM139.341 72.292L139.942 71.4927C139.607 71.241 139.151 71.2246 138.799 71.4516C138.447 71.6786 138.274 72.1009 138.365 72.5097L139.341 72.292ZM166.774 92.9185L167.569 92.3116C167.513 92.2389 167.448 92.1742 167.375 92.1192L166.774 92.9185ZM198.908 130.932L198.171 131.608C198.384 131.841 198.696 131.959 199.01 131.927L198.908 130.932ZM212 129.587H213C213 129.304 212.88 129.034 212.67 128.845C212.46 128.655 212.179 128.563 211.898 128.592L212 129.587ZM212 154.339V155.339C212.552 155.339 213 154.891 213 154.339H212ZM211.986 154.339V153.339C211.45 153.339 211.01 153.761 210.987 154.296L211.986 154.339ZM181.974 180.137L181.612 179.205L181.974 180.137ZM41.7926 180.137L42.1354 179.198L41.7926 180.137ZM12 155.339H12.0138V153.339H12V155.339ZM11 129.587V154.339H13V129.587H11ZM24.0275 130.446L12.1537 128.599L11.8463 130.575L23.72 132.422L24.0275 130.446ZM24.6564 132.057C30.2185 125.063 38.9972 116.006 46.7595 107.999L45.3235 106.607C37.5874 114.587 28.7282 123.724 23.0911 130.812L24.6564 132.057ZM46.7595 107.999C52.3328 102.25 57.3964 97.0271 60.2938 93.5597L58.7591 92.2773C55.9213 95.6733 50.9236 100.83 45.3235 106.607L46.7595 107.999ZM60.184 93.6719L83.8186 73.0454L82.5035 71.5386L58.8689 92.1651L60.184 93.6719ZM82.213 71.9738C80.7786 76.2476 78.4894 87.0721 76.1394 98.1745L78.0961 98.5887C80.4639 87.4021 82.7223 76.7422 84.1091 72.6102L82.213 71.9738ZM76.1394 98.1745C73.5465 110.425 70.8768 123.026 69.1373 128.058L71.0275 128.712C72.8195 123.528 75.5216 110.751 78.0961 98.5887L76.1394 98.1745ZM69.1373 128.058C67.9542 131.481 67.0087 135.338 68.3987 138.872L70.2599 138.14C69.1592 135.341 69.8517 132.113 71.0275 128.712L69.1373 128.058ZM91.7034 140.975L69.483 137.518L69.1756 139.494L91.396 142.951L91.7034 140.975ZM149.182 135.036L91.4475 140.968L91.6519 142.958L149.386 137.026L149.182 135.036ZM150.284 136.049C150.327 133.722 149.806 131.231 149.3 128.785L147.341 129.191C147.86 131.693 148.323 133.951 148.284 136.012L150.284 136.049ZM149.3 128.785C149.258 128.585 149.217 128.384 149.175 128.183L147.216 128.587C147.258 128.789 147.3 128.991 147.341 129.191L149.3 128.785ZM149.175 128.183C147.867 121.829 146.028 109.196 144.3 97.3254L142.321 97.6134C144.044 109.449 145.893 122.159 147.216 128.587L149.175 128.183ZM144.3 97.3254C142.708 86.386 141.207 76.0643 140.317 72.0743L138.365 72.5097C139.234 76.4046 140.721 86.6172 142.321 97.6134L144.3 97.3254ZM138.74 73.0913L166.173 93.7178L167.375 92.1192L139.942 71.4927L138.74 73.0913ZM165.979 93.5254C170.712 99.7226 183.349 115.433 198.171 131.608L199.645 130.257C184.868 114.13 172.269 98.4661 167.569 92.3116L165.979 93.5254ZM211.898 128.592L198.806 129.937L199.01 131.927L212.102 130.582L211.898 128.592ZM213 154.339V129.587H211V154.339H213ZM211.986 155.339H212V153.339H211.986V155.339ZM210.987 154.296C210.772 159.326 207.913 163.819 202.799 167.956C197.68 172.097 190.405 175.79 181.612 179.205L182.336 181.069C191.203 177.626 198.701 173.843 204.057 169.511C209.419 165.174 212.736 160.198 212.985 154.381L210.987 154.296ZM181.612 179.205C168.258 184.392 144.007 188.277 117.718 188.909C91.4389 189.541 63.2911 186.918 42.1354 179.198L41.4498 181.077C62.9405 188.919 91.3721 191.543 117.766 190.908C144.151 190.274 168.668 186.378 182.336 181.069L181.612 179.205ZM42.1354 179.198C30.5322 174.964 23.142 170.724 18.709 166.549C14.3116 162.407 12.844 158.354 13.0129 154.381L11.0147 154.296C10.8176 158.934 12.5827 163.526 17.3377 168.005C22.0572 172.45 29.7393 176.803 41.4498 181.077L42.1354 179.198Z" fill="black"/>
<path d="M21.5254 111.619C29.9701 99.7485 52.067 78.927 59.5265 70H84.4384C81.4827 78.8063 73.4603 95.6952 70.0824 105.467C66.7024 115.244 66.2823 126.095 108.928 126.095C153.263 126.095 150.516 116.737 148.196 105.467C145.662 93.1618 140.314 78.2031 138.484 70H166.774C171.841 76.6349 186.028 94.2475 202.242 111.619C222.509 133.333 208.997 146.724 181.974 157.219C154.951 167.714 84.439 172.781 41.7926 157.219C0.391312 142.111 10.9695 126.457 21.5254 111.619Z" fill="#323232" stroke="black" stroke-width="2" stroke-linejoin="round"/>
<mask id="mask0_2246_26700" style="mask-type:alpha" maskUnits="userSpaceOnUse" x="12" y="70" width="200" height="98">
<path d="M21.5188 111.674C29.9576 99.7881 52.0392 78.9388 59.4935 69.9999H84.3881C81.4345 78.818 73.4176 95.7294 70.0421 105.514C66.6644 115.304 66.2446 126.17 108.861 126.17C153.164 126.17 150.42 116.799 148.101 105.514C145.57 93.1927 140.225 78.214 138.396 69.9999H166.667C171.73 76.6437 185.907 94.2798 202.11 111.674C222.363 133.418 208.861 146.826 181.856 157.335C154.852 167.844 84.3887 172.918 41.7719 157.335C0.399373 142.207 10.9702 126.532 21.5188 111.674Z" fill="#323232"/>
</mask>
<g mask="url(#mask0_2246_26700)">
<line x1="51.0584" y1="73.3495" x2="100.847" y2="73.3495" stroke="black" stroke-width="2" stroke-linejoin="round"/>
<line x1="47.6865" y1="77.7226" x2="97.4756" y2="77.7226" stroke="black" stroke-width="2" stroke-linejoin="round"/>
<line x1="40.9381" y1="83.5527" x2="90.7271" y2="83.5527" stroke="black" stroke-width="2" stroke-linejoin="round"/>
<line x1="35.0256" y1="90.8425" x2="84.8146" y2="90.8425" stroke="black" stroke-width="2" stroke-linejoin="round"/>
<line x1="12.2428" y1="99.5878" x2="76.3778" y2="99.5878" stroke="black" stroke-width="2" stroke-linejoin="round"/>
<line y1="-1" x2="74.5508" y2="-1" transform="matrix(0.996122 -0.0879894 0.117592 0.993062 2.11621 113.709)" stroke="black" stroke-width="2" stroke-linejoin="round"/>
<line y1="-1" x2="82.2134" y2="-1" transform="matrix(0.97513 -0.221634 0.291461 0.956583 4.64587 131.928)" stroke="black" stroke-width="2" stroke-linejoin="round"/>
<line y1="-1" x2="80.5662" y2="-1" transform="matrix(0.900798 -0.434239 0.542758 0.839889 18.1504 156.711)" stroke="black" stroke-width="2" stroke-linejoin="round"/>
<line y1="-1" x2="61.3408" y2="-1" transform="matrix(0.401131 -0.916021 0.9509 0.309498 80.5054 179.039)" stroke="black" stroke-width="2" stroke-linejoin="round"/>
<line y1="-1" x2="57.8744" y2="-1" transform="matrix(-1 0 0 1 174.757 74.3495)" stroke="black" stroke-width="2" stroke-linejoin="round"/>
<line y1="-1" x2="57.8744" y2="-1" transform="matrix(-1 0 0 1 178.682 78.7226)" stroke="black" stroke-width="2" stroke-linejoin="round"/>
<line y1="-1" x2="57.8744" y2="-1" transform="matrix(-1 0 0 1 186.53 84.5527)" stroke="black" stroke-width="2" stroke-linejoin="round"/>
<line y1="-1" x2="57.8744" y2="-1" transform="matrix(-1 0 0 1 193.396 91.8425)" stroke="black" stroke-width="2" stroke-linejoin="round"/>
<line y1="-1" x2="74.5501" y2="-1" transform="matrix(-1 -6.49576e-08 -1.17657e-07 1 219.883 100.588)" stroke="black" stroke-width="2" stroke-linejoin="round"/>
<line y1="-1" x2="86.5701" y2="-1" transform="matrix(-0.997125 -0.075773 -0.136358 0.99066 231.654 113.709)" stroke="black" stroke-width="2" stroke-linejoin="round"/>
<line y1="-1" x2="94.9524" y2="-1" transform="matrix(-0.981415 -0.1919 -0.33385 0.942626 228.708 131.928)" stroke="black" stroke-width="2" stroke-linejoin="round"/>
<line y1="-1" x2="91.326" y2="-1" transform="matrix(-0.923716 -0.383077 -0.600598 0.799551 213.015 156.711)" stroke="black" stroke-width="2" stroke-linejoin="round"/>
<line y1="-1" x2="61.8796" y2="-1" transform="matrix(-0.397919 -0.917421 -0.968334 0.249658 138.546 179.331)" stroke="black" stroke-width="2" stroke-linejoin="round"/>
</g>
<path d="M105.511 90.5106C107.814 86.4784 113.628 86.4784 115.931 90.5107L142.3 136.677C144.584 140.677 141.696 145.653 137.09 145.653H84.3522C79.7458 145.653 76.8575 140.677 79.1421 136.677L105.511 90.5106Z" fill="#FFD953"/>
<path d="M114.065 105.766H107.327L107.896 126.714H113.496L114.065 105.766ZM107.065 132.581C107.021 134.502 108.683 136.051 110.74 136.051C112.687 136.051 114.371 134.502 114.371 132.581C114.371 130.68 112.687 129.131 110.74 129.151C108.683 129.131 107.021 130.68 107.065 132.581Z" fill="black"/>
</svg>
