<svg viewBox="0 0 37 36" fill="none" xmlns="http://www.w3.org/2000/svg">
<path d="M18.0285 34.7999C27.3069 34.7999 34.8285 27.2783 34.8285 18C34.8285 8.72157 27.3069 1.19995 18.0285 1.19995C8.75013 1.19995 1.22852 8.72157 1.22852 18C1.22852 27.2783 8.75013 34.7999 18.0285 34.7999Z" fill="url(#paint0_radial_950_10703)"/>
<path d="M18.0301 19.0784L18.0298 19.0784C15.3727 19.0823 12.7203 18.8527 10.1034 18.3923C9.05708 18.2068 8.45268 19.5589 9.30609 20.1969L9.30644 20.1972C11.8006 22.0447 14.8043 22.7572 18.03 22.7572C21.2555 22.7572 24.2594 22.0448 26.7475 20.1971C27.6085 19.5585 27.0017 18.207 25.9506 18.3923C23.3356 18.8524 20.6853 19.082 18.0301 19.0784Z" fill="#FF7133" stroke="#FF6623" stroke-width="0.2"/>
<path d="M23.1105 13.2131C24.1268 13.2059 25.1324 13.4214 26.0565 13.8443C26.6493 14.1227 27.2013 13.3871 26.7597 12.9023C26.2959 12.3967 25.7321 11.993 25.104 11.7169C24.4759 11.4407 23.7973 11.2981 23.1111 11.2981C22.425 11.2981 21.7464 11.4407 21.1183 11.7169C20.4902 11.993 19.9264 12.3967 19.4625 12.9023C19.0209 13.3823 19.5729 14.1227 20.1657 13.8443C21.0895 13.4215 22.0946 13.2061 23.1105 13.2131V13.2131Z" fill="#141414"/>
<path d="M12.9477 13.2131C11.9314 13.2059 10.9258 13.4214 10.0017 13.8443C9.40888 14.1227 8.85688 13.3871 9.29848 12.9023C9.76229 12.3967 10.3261 11.993 10.9542 11.7169C11.5823 11.4407 12.2609 11.2981 12.9471 11.2981C13.6332 11.2981 14.3118 11.4407 14.9399 11.7169C15.568 11.993 16.1319 12.3967 16.5957 12.9023C17.0373 13.3823 16.4853 14.1227 15.8925 13.8443C14.9687 13.4215 13.9636 13.2061 12.9477 13.2131V13.2131Z" fill="#141414"/>
<defs>
<radialGradient id="paint0_radial_950_10703" cx="0" cy="0" r="1" gradientUnits="userSpaceOnUse" gradientTransform="translate(18.0285 18) scale(16.8)">
<stop stop-color="#FFD362"/>
<stop offset="1" stop-color="#FFCA43"/>
</radialGradient>
</defs>
</svg>
