<svg viewBox="0 0 37 36" fill="none" xmlns="http://www.w3.org/2000/svg">
<path d="M18.0891 34.7999C27.3674 34.7999 34.8891 27.2783 34.8891 18C34.8891 8.72157 27.3674 1.19995 18.0891 1.19995C8.81068 1.19995 1.28906 8.72157 1.28906 18C1.28906 27.2783 8.81068 34.7999 18.0891 34.7999Z" fill="url(#paint0_radial_950_10651)"/>
<path d="M17.9813 21.3421C19.2185 21.4933 20.4209 22.0921 21.5021 22.6537C21.8621 22.8397 22.1681 22.5589 21.9821 22.2229C21.412 21.1494 20.5093 20.2897 19.4093 19.7725C18.7933 19.4913 18.1143 19.3767 17.4401 19.4401C16.1777 19.5601 15.1001 20.3245 14.4125 21.3685C14.3325 21.4861 14.2593 21.6061 14.1929 21.7285C14.0093 22.0621 14.3225 22.3393 14.6729 22.1557C15.2597 21.8497 15.8609 21.5353 16.5113 21.3925C16.995 21.293 17.492 21.276 17.9813 21.3421V21.3421Z" fill="#FF8933"/>
<path d="M23.0656 24.6396C23.4211 24.6396 23.7621 24.7808 24.0134 25.0322C24.2648 25.2836 24.406 25.6245 24.406 25.98V25.98C24.4057 26.3353 24.2644 26.6759 24.013 26.927C23.7617 27.1781 23.4209 27.3192 23.0656 27.3192H20.9128C20.3164 27.3192 19.7444 27.5561 19.3227 27.9779C18.901 28.3996 18.664 28.9716 18.664 29.568V32.04C18.664 32.772 18.3733 33.474 17.8557 33.9916C17.3381 34.5092 16.636 34.8 15.904 34.8H12.8584C11.6844 34.8 10.5584 34.3336 9.72822 33.5034C8.89803 32.6732 8.43164 31.5473 8.43164 30.3732V21.6348C8.43494 21.3999 8.5071 21.1712 8.63917 20.9769C8.77124 20.7827 8.95742 20.6315 9.17462 20.542C9.39182 20.4526 9.6305 20.4289 9.86106 20.4738C10.0916 20.5187 10.3039 20.6304 10.4716 20.7948V20.7948C11.3257 21.6503 11.8596 22.7735 11.9836 23.976C12.0044 24.1594 12.0922 24.3286 12.2302 24.4511C12.3682 24.5736 12.5467 24.6408 12.7312 24.6396H23.0656Z" fill="#FAA11D"/>
<path d="M21.0708 16.5575C22.3611 16.5575 23.4072 15.3809 23.4072 13.9295C23.4072 12.4781 22.3611 11.3015 21.0708 11.3015C19.7804 11.3015 18.7344 12.4781 18.7344 13.9295C18.7344 15.3809 19.7804 16.5575 21.0708 16.5575Z" fill="#141414"/>
<path d="M13.9217 16.2996C15.1147 16.2996 16.0817 15.2385 16.0817 13.9296C16.0817 12.6207 15.1147 11.5596 13.9217 11.5596C12.7288 11.5596 11.7617 12.6207 11.7617 13.9296C11.7617 15.2385 12.7288 16.2996 13.9217 16.2996Z" fill="#141414"/>
<path d="M18.7906 6.45474C18.9322 5.90034 19.5442 4.85994 20.7106 4.29474C21.4389 3.94482 22.2629 3.84689 23.053 4.01634C23.4915 4.13639 23.9103 4.3195 24.2962 4.55994C24.5245 4.70207 24.7345 4.87175 24.9214 5.06514C25.0726 5.20496 25.1921 5.3756 25.2718 5.56554C25.321 5.69514 25.4122 5.92554 25.3234 6.15594C25.2828 6.25461 25.2129 6.33841 25.123 6.39594C24.9959 6.47358 24.8436 6.49895 24.6982 6.46674C24.2878 6.41394 24.1438 6.22674 23.6854 6.06474C23.505 5.99989 23.319 5.95169 23.1298 5.92074C22.7944 5.85812 22.453 5.83396 22.1122 5.84874C21.3968 5.9046 20.7181 6.18804 20.1754 6.65754C19.7266 7.04754 19.4914 7.46754 19.1446 7.39434C19.0098 7.36262 18.8929 7.27896 18.8194 7.16154C18.6718 6.92154 18.7534 6.59994 18.7906 6.45474Z" fill="#141414"/>
<path d="M13.078 9.35988C12.7844 9.31661 12.4865 9.30976 12.1912 9.33948C10.9732 9.42348 10.4536 9.88788 10.078 9.58908C10.0115 9.52989 9.95787 9.45774 9.92031 9.37705C9.88276 9.29636 9.86209 9.20885 9.8596 9.11988C9.8524 8.86068 10.0216 8.66748 10.1464 8.51988C10.3081 8.3417 10.5029 8.19661 10.72 8.09268C11.0637 7.8981 11.4358 7.7588 11.8228 7.67988C12.5786 7.50716 13.3687 7.56228 14.0932 7.83828C14.545 8.01658 14.9563 8.28387 15.3028 8.62428C15.5095 8.82524 15.6836 9.05723 15.8188 9.31188C15.9628 9.58668 16.2112 10.0595 16.0036 10.3667C15.9281 10.4717 15.8166 10.5451 15.6904 10.5731C15.3784 10.6379 15.1588 10.3487 14.7304 10.0415C14.2325 9.70275 13.6699 9.47068 13.078 9.35988Z" fill="#141414"/>
<defs>
<radialGradient id="paint0_radial_950_10651" cx="0" cy="0" r="1" gradientUnits="userSpaceOnUse" gradientTransform="translate(18.0891 18) scale(16.8)">
<stop stop-color="#FFD362"/>
<stop offset="1" stop-color="#FFCA43"/>
</radialGradient>
</defs>
</svg>
