<svg viewBox="0 0 37 36" fill="none" xmlns="http://www.w3.org/2000/svg">
<path d="M18.0578 34.7999C27.3362 34.7999 34.8578 27.2783 34.8578 18C34.8578 8.72157 27.3362 1.19995 18.0578 1.19995C8.77943 1.19995 1.25781 8.72157 1.25781 18C1.25781 27.2783 8.77943 34.7999 18.0578 34.7999Z" fill="url(#paint0_radial_950_10650)"/>
<path d="M22.5259 16.4497C23.9176 16.4497 25.0459 15.3214 25.0459 13.9297C25.0459 12.5379 23.9176 11.4097 22.5259 11.4097C21.1341 11.4097 20.0059 12.5379 20.0059 13.9297C20.0059 15.3214 21.1341 16.4497 22.5259 16.4497Z" fill="#141414"/>
<path d="M13.5903 16.4497C14.9821 16.4497 16.1103 15.3214 16.1103 13.9297C16.1103 12.5379 14.9821 11.4097 13.5903 11.4097C12.1986 11.4097 11.0703 12.5379 11.0703 13.9297C11.0703 15.3214 12.1986 16.4497 13.5903 16.4497Z" fill="#141414"/>
<path d="M19.2742 21.7956C20.2066 21.2904 20.791 20.5596 20.791 19.7472C20.791 18.6672 19.7602 17.736 18.2566 17.2812H18.2446C18.2 17.2688 18.1531 17.2669 18.1076 17.2756C18.0621 17.2843 18.0192 17.3034 17.9823 17.3314C17.9454 17.3594 17.9154 17.3955 17.8947 17.437C17.874 17.4784 17.8632 17.5241 17.863 17.5704C17.8631 17.6245 17.8778 17.6775 17.9054 17.7239C17.9331 17.7704 17.9727 17.8085 18.0202 17.8344C18.8434 18.3276 19.351 19.0044 19.351 19.7544C19.351 20.3844 18.991 20.9628 18.391 21.4248C18.2022 21.5677 18.0014 21.6941 17.791 21.8028C18.0015 21.9119 18.2022 22.0387 18.391 22.182C18.991 22.6428 19.351 23.2224 19.351 23.8512C19.351 24.6 18.841 25.2792 18.0154 25.7712C18.005 25.7765 17.995 25.7825 17.9854 25.7892C17.9323 25.8252 17.8921 25.8773 17.8707 25.9378C17.8494 25.9983 17.848 26.0641 17.8668 26.1255C17.8856 26.1868 17.9236 26.2406 17.9752 26.2787C18.0268 26.3169 18.0892 26.3376 18.1534 26.3376C18.1718 26.3394 18.1903 26.3394 18.2086 26.3376L18.265 26.3196C19.7614 25.8636 20.785 24.9324 20.785 23.8572C20.791 23.0316 20.2066 22.3008 19.2742 21.7956Z" fill="#FF7133"/>
<defs>
<radialGradient id="paint0_radial_950_10650" cx="0" cy="0" r="1" gradientUnits="userSpaceOnUse" gradientTransform="translate(18.0578 18) scale(16.8)">
<stop stop-color="#FFD362"/>
<stop offset="1" stop-color="#FFCA43"/>
</radialGradient>
</defs>
</svg>
