<svg width="224" height="224" viewBox="0 0 224 224" fill="none" xmlns="http://www.w3.org/2000/svg">
<ellipse cx="101.267" cy="169.627" rx="43.6992" ry="16.7833" transform="rotate(-16 101.267 169.627)" fill="#C4C4C4"/>
<path fill-rule="evenodd" clip-rule="evenodd" d="M112.606 43.0693L24.0519 68.4617L55.0815 176.675C55.0989 176.746 55.1177 176.816 55.1378 176.887C57.5908 185.441 79.4028 186.692 103.856 179.68C128.309 172.668 146.143 160.05 143.692 151.495L143.696 151.494L112.606 43.0693Z" fill="#23B169"/>
<ellipse cx="68.2572" cy="55.5121" rx="46.0613" ry="10.7518" transform="rotate(-16 68.2572 55.5121)" fill="#9E9E9E"/>
<ellipse cx="67.2455" cy="51.9838" rx="46.0613" ry="10.7518" transform="rotate(-16 67.2455 51.9838)" fill="#C4C4C4"/>
<path fill-rule="evenodd" clip-rule="evenodd" d="M30.8625 92.1514L30.8491 92.1553L48.4861 153.663L48.5096 153.656C48.5425 153.828 48.5831 153.998 48.6314 154.166C51.1065 162.798 72.9364 164.111 97.39 157.099C121.843 150.087 139.661 137.405 137.185 128.774C137.137 128.605 137.081 128.439 137.018 128.276L137.04 128.27L119.403 66.7628L119.391 66.7663C120.422 72.5222 102.112 82.634 78.0182 89.5427C53.9248 96.4513 33.038 97.5792 30.8625 92.1514Z" fill="white"/>
<path fill-rule="evenodd" clip-rule="evenodd" d="M97.841 47.8719C97.84 47.8722 97.8389 47.8725 97.8379 47.8728C97.4981 47.9702 97.1584 48.0361 96.8233 48.0723L82.6061 50.8726C82.604 50.8732 82.6019 50.8738 82.5998 50.8744C80.87 51.3704 79.143 50.6403 78.7426 49.2438C78.3421 47.8472 79.4198 46.3129 81.1496 45.8169C81.1499 45.8168 81.1503 45.8167 81.1506 45.8166L81.1504 45.8162L94.6964 40.655C94.9998 40.5081 95.3228 40.384 95.6626 40.2865C95.6636 40.2862 95.6647 40.2859 95.6657 40.2857C98.2594 39.5434 100.848 40.6384 101.448 42.7324C102.049 44.8265 100.434 47.1269 97.841 47.8719Z" fill="#818181"/>
<mask id="mask0_2246_26497" style="mask-type:alpha" maskUnits="userSpaceOnUse" x="32" y="73" width="104" height="83">
<path fill-rule="evenodd" clip-rule="evenodd" d="M32.8902 99.2089L32.8765 99.2129L46.6102 147.108L46.6344 147.101C46.6674 147.273 46.7081 147.443 46.7565 147.612C49.2316 156.244 71.0615 157.557 95.515 150.545C119.969 143.533 137.786 130.851 135.311 122.22C135.262 122.051 135.206 121.885 135.143 121.722L135.164 121.716L121.43 73.8204L121.418 73.8239C122.448 79.5799 104.138 89.691 80.0455 96.5993C55.9534 103.508 35.0676 104.636 32.8902 99.2089Z" fill="#875A00"/>
</mask>
<g mask="url(#mask0_2246_26497)">
<rect x="-2.69751" y="84.539" width="4.90819" height="132.788" transform="rotate(-16 -2.69751 84.539)" fill="#222222"/>
<rect x="29.541" y="75.293" width="4.90819" height="132.788" transform="rotate(-16 29.541 75.293)" fill="#222222"/>
<rect x="57.8467" y="67.1768" width="4.90819" height="132.788" transform="rotate(-16 57.8467 67.1768)" fill="#222222"/>
<rect x="64.1379" y="65.3721" width="4.90819" height="132.788" transform="rotate(-16 64.1379 65.3721)" fill="#222222"/>
<rect x="105.817" y="53.4219" width="4.90819" height="132.788" transform="rotate(-16 105.817 53.4219)" fill="#222222"/>
<rect x="88.5149" y="58.3829" width="4.90819" height="132.788" transform="rotate(-16 88.5149 58.3829)" fill="#222222"/>
<rect x="16.959" y="78.9005" width="2.4541" height="132.788" transform="rotate(-16 16.959 78.9005)" fill="#222222"/>
<rect x="25.6125" y="76.42" width="2.4541" height="132.788" transform="rotate(-16 25.6125 76.42)" fill="#222222"/>
<rect x="131.765" y="45.9818" width="2.4541" height="132.788" transform="rotate(-16 131.765 45.9818)" fill="#222222"/>
<rect x="53.918" y="68.3038" width="2.4541" height="132.788" transform="rotate(-16 53.918 68.3038)" fill="#222222"/>
<rect x="112.428" y="51.0049" width="3.54318" height="133.595" transform="rotate(-16 112.428 51.0049)" fill="#222222"/>
<rect x="77.5073" y="61.5391" width="2.4541" height="132.788" transform="rotate(-16 77.5073 61.5391)" fill="#222222"/>
<rect x="81.4402" y="60.4122" width="2.4541" height="132.788" transform="rotate(-16 81.4402 60.4122)" fill="#222222"/>
<rect x="5.95166" y="82.0587" width="7.36229" height="132.788" transform="rotate(-16 5.95166 82.0587)" fill="#222222"/>
<rect x="40.5486" y="72.1375" width="7.36229" height="132.788" transform="rotate(-16 40.5486 72.1375)" fill="#222222"/>
<rect x="94.8098" y="56.5792" width="8.99835" height="132.788" transform="rotate(-16 94.8098 56.5792)" fill="#222222"/>
<rect x="118.399" y="49.8142" width="8.99835" height="132.788" transform="rotate(-16 118.399 49.8142)" fill="#222222"/>
</g>
<rect x="119.544" y="67.252" width="57.8719" height="64.4538" transform="rotate(-16 119.544 67.252)" fill="white"/>
<rect x="139.446" y="68.8584" width="3.73771" height="50.6423" transform="rotate(-16 139.446 68.8584)" fill="#222222"/>
<rect x="136.454" y="69.7178" width="1.86885" height="50.6423" transform="rotate(-16 136.454 69.7178)" fill="#222222"/>
<rect x="121.482" y="74.0107" width="1.86885" height="50.6423" transform="rotate(-16 121.482 74.0107)" fill="#222222"/>
<rect x="126.27" y="72.6367" width="6.85246" height="50.6423" transform="rotate(-16 126.27 72.6367)" fill="#222222"/>
<path d="M167.108 109.477L166.451 107.184L172.643 105.409L172.201 103.868L166.009 105.643L165.352 103.354L164.067 103.723L165.823 109.846L167.108 109.477ZM171.399 101.069L170.954 99.517L167.854 100.406L166.925 97.1673L170.025 96.2784L169.579 94.723L162.102 96.8672L162.548 98.4226L165.644 97.5348L166.572 100.773L163.476 101.661L163.921 103.213L171.399 101.069ZM168.989 92.6637L167.104 92.5956L166.327 89.8864L167.889 88.8299L167.412 87.165L160.676 91.8942L161.247 93.8878L169.466 94.3286L168.989 92.6637ZM165.775 92.5499L162.657 92.4365L162.64 92.3781L165.224 90.6294L165.775 92.5499ZM158.034 82.681L158.477 84.2254L163.223 82.8644L163.242 82.9301L159.431 87.5553L159.823 88.9209L167.301 86.7767L166.856 85.2249L162.105 86.587L162.089 86.5286L165.897 81.8804L165.511 80.5368L158.034 82.681ZM165.281 79.7339L164.836 78.1821L162.7 78.7946L161.521 78.2792L164.017 75.3269L163.483 73.4648L160.162 77.4676L156.015 75.6418L156.55 77.5076L160.644 79.2735L160.674 79.3757L157.358 80.3263L157.803 81.8781L165.281 79.7339ZM156.917 70.7126L156.49 69.2229C155.17 69.6212 154.568 70.9793 155.042 72.6333C155.511 74.2691 156.756 75.2081 158.109 74.8123C159.212 74.4998 159.618 73.5457 159.563 72.1944L159.529 71.319C159.498 70.4508 159.602 69.9191 160.108 69.7699C160.672 69.6123 161.199 70.0302 161.432 70.8445C161.67 71.6733 161.465 72.3799 160.728 72.6467L161.159 74.151C162.747 73.6523 163.252 72.2587 162.735 70.455C162.212 68.6294 161.033 67.8135 159.667 68.2014C158.419 68.5631 158.039 69.7035 158.118 71.0678L158.146 71.7867C158.182 72.4759 158.101 73.1036 157.551 73.2534C157.057 73.3911 156.57 73.0566 156.346 72.2752C156.127 71.5121 156.339 70.9417 156.917 70.7126Z" fill="#323232"/>
</svg>
