<svg width="30" height="30" viewBox="0 0 30 30" fill="none" xmlns="http://www.w3.org/2000/svg">
<circle cx="15" cy="15" r="13" fill="#FFD953"/>
<path fill-rule="evenodd" clip-rule="evenodd" d="M8.06641 9.95005C8.06641 9.59106 8.35742 9.30005 8.71641 9.30005H21.2831C21.6421 9.30005 21.9331 9.59106 21.9331 9.95005C21.9331 10.309 21.6421 10.6 21.2831 10.6H8.71641C8.35742 10.6 8.06641 10.309 8.06641 9.95005Z" fill="#222222"/>
<path d="M20.201 9.73333C20.201 10.6906 19.425 11.4667 18.4677 11.4667C17.5104 11.4667 16.7344 10.6906 16.7344 9.73333C16.7344 8.77604 17.5104 8 18.4677 8C19.425 8 20.201 8.77604 20.201 9.73333Z" fill="#FFD953"/>
<path fill-rule="evenodd" clip-rule="evenodd" d="M18.4677 10.6C18.9464 10.6 19.3344 10.212 19.3344 9.73333C19.3344 9.25469 18.9464 8.86667 18.4677 8.86667C17.9891 8.86667 17.601 9.25469 17.601 9.73333C17.601 10.212 17.9891 10.6 18.4677 10.6ZM18.4677 11.4667C19.425 11.4667 20.201 10.6906 20.201 9.73333C20.201 8.77604 19.425 8 18.4677 8C17.5104 8 16.7344 8.77604 16.7344 9.73333C16.7344 10.6906 17.5104 11.4667 18.4677 11.4667Z" fill="#222222"/>
<path fill-rule="evenodd" clip-rule="evenodd" d="M8.06641 14.7169C8.06641 14.3579 8.35742 14.0669 8.71641 14.0669H21.2831C21.6421 14.0669 21.9331 14.3579 21.9331 14.7169C21.9331 15.0759 21.6421 15.3669 21.2831 15.3669H8.71641C8.35742 15.3669 8.06641 15.0759 8.06641 14.7169Z" fill="#222222"/>
<path d="M14.1327 14.5002C14.1327 15.4575 13.3566 16.2335 12.3993 16.2335C11.4421 16.2335 10.666 15.4575 10.666 14.5002C10.666 13.5429 11.4421 12.7668 12.3993 12.7668C13.3566 12.7668 14.1327 13.5429 14.1327 14.5002Z" fill="#FFD953"/>
<path fill-rule="evenodd" clip-rule="evenodd" d="M12.3993 15.3668C12.878 15.3668 13.266 14.9788 13.266 14.5002C13.266 14.0215 12.878 13.6335 12.3993 13.6335C11.9207 13.6335 11.5327 14.0215 11.5327 14.5002C11.5327 14.9788 11.9207 15.3668 12.3993 15.3668ZM12.3993 16.2335C13.3566 16.2335 14.1327 15.4575 14.1327 14.5002C14.1327 13.5429 13.3566 12.7668 12.3993 12.7668C11.4421 12.7668 10.666 13.5429 10.666 14.5002C10.666 15.4575 11.4421 16.2335 12.3993 16.2335Z" fill="#222222"/>
<path fill-rule="evenodd" clip-rule="evenodd" d="M8.06641 19.4833C8.06641 19.1243 8.35742 18.8333 8.71641 18.8333H21.2831C21.6421 18.8333 21.9331 19.1243 21.9331 19.4833C21.9331 19.8422 21.6421 20.1333 21.2831 20.1333H8.71641C8.35742 20.1333 8.06641 19.8422 8.06641 19.4833Z" fill="#222222"/>
<path d="M20.201 19.2665C20.201 20.2238 19.425 20.9999 18.4677 20.9999C17.5104 20.9999 16.7344 20.2238 16.7344 19.2665C16.7344 18.3092 17.5104 17.5332 18.4677 17.5332C19.425 17.5332 20.201 18.3092 20.201 19.2665Z" fill="#FFD953"/>
<path fill-rule="evenodd" clip-rule="evenodd" d="M18.4677 20.1332C18.9464 20.1332 19.3344 19.7452 19.3344 19.2665C19.3344 18.7879 18.9464 18.3999 18.4677 18.3999C17.9891 18.3999 17.601 18.7879 17.601 19.2665C17.601 19.7452 17.9891 20.1332 18.4677 20.1332ZM18.4677 20.9999C19.425 20.9999 20.201 20.2238 20.201 19.2665C20.201 18.3092 19.425 17.5332 18.4677 17.5332C17.5104 17.5332 16.7344 18.3092 16.7344 19.2665C16.7344 20.2238 17.5104 20.9999 18.4677 20.9999Z" fill="#222222"/>
</svg>
