<svg viewBox="0 0 111 25" fill="none" xmlns="http://www.w3.org/2000/svg">
<path d="M1.62405 24.3132C1.88465 24.2219 2.02187 23.9366 1.93054 23.676C1.83921 23.4154 1.55391 23.2782 1.29331 23.3695L1.62405 24.3132ZM4.90353 21.9973C4.6474 22.1005 4.52346 22.3918 4.62668 22.6479C4.7299 22.904 5.02121 23.028 5.27734 22.9248L4.90353 21.9973ZM6.17939 22.558C6.43492 22.4533 6.55719 22.1613 6.4525 21.9058C6.34781 21.6502 6.05579 21.528 5.80026 21.6327L6.17939 22.558ZM9.38868 20.1459C9.13346 20.2514 9.01203 20.5437 9.11747 20.799C9.22291 21.0542 9.51528 21.1756 9.7705 21.0702L9.38868 20.1459ZM10.667 20.7015C10.9226 20.597 11.045 20.305 10.9405 20.0494C10.8359 19.7938 10.544 19.6714 10.2884 19.7759L10.667 20.7015ZM13.9141 18.3416C13.6559 18.4395 13.5259 18.7282 13.6239 18.9864C13.7218 19.2446 14.0104 19.3746 14.2686 19.2767L13.9141 18.3416ZM15.1776 18.9365C15.4366 18.8408 15.5691 18.5533 15.4734 18.2942C15.3777 18.0352 15.0902 17.9027 14.8312 17.9984L15.1776 18.9365ZM18.5152 16.7176C18.2526 16.803 18.109 17.0851 18.1944 17.3477C18.2798 17.6103 18.5619 17.754 18.8245 17.6686L18.5152 16.7176ZM19.7477 17.3737C20.0111 17.2911 20.1578 17.0105 20.0751 16.747C19.9925 16.4836 19.7119 16.3369 19.4485 16.4195L19.7477 17.3737ZM23.1971 15.3315C22.9303 15.4028 22.7718 15.6768 22.8431 15.9436C22.9144 16.2104 23.1885 16.3689 23.4553 16.2976L23.1971 15.3315ZM24.3965 16.0514C24.664 15.983 24.8254 15.7106 24.757 15.4431C24.6885 15.1756 24.4162 15.0142 24.1486 15.0826L24.3965 16.0514ZM27.9495 14.1934C27.6794 14.2508 27.507 14.5164 27.5645 14.7865C27.6219 15.0566 27.8875 15.229 28.1576 15.1715L27.9495 14.1934ZM29.1001 14.9758C29.3708 14.921 29.5457 14.6571 29.4909 14.3865C29.4361 14.1158 29.1722 13.9409 28.9016 13.9957L29.1001 14.9758ZM32.7408 13.2928C32.4683 13.3376 32.2837 13.5948 32.3285 13.8672C32.3733 14.1397 32.6305 14.3243 32.9029 14.2795L32.7408 13.2928ZM33.8689 14.1252C34.1418 14.0828 34.3286 13.8272 34.2862 13.5544C34.2439 13.2815 33.9883 13.0946 33.7154 13.137L33.8689 14.1252ZM37.5716 12.6033C37.2975 12.6368 37.1024 12.8861 37.1359 13.1602C37.1694 13.4343 37.4187 13.6294 37.6928 13.5959L37.5716 12.6033ZM38.6577 13.4818C38.932 13.4504 39.129 13.2026 39.0976 12.9282C39.0662 12.6539 38.8184 12.4569 38.544 12.4883L38.6577 13.4818ZM42.4207 12.1016C42.1455 12.1252 41.9416 12.3673 41.9652 12.6424C41.9887 12.9176 42.2309 13.1215 42.506 13.0979L42.4207 12.1016ZM43.477 13.018C43.7522 12.9963 43.9578 12.7555 43.9361 12.4802C43.9143 12.205 43.6735 11.9994 43.3983 12.0211L43.477 13.018ZM47.2791 11.764C47.0034 11.7789 46.7919 12.0145 46.8068 12.2903C46.8217 12.566 47.0574 12.7774 47.3331 12.7625L47.2791 11.764ZM48.3102 12.7126C48.5861 12.6993 48.7989 12.4649 48.7856 12.1891C48.7723 11.9133 48.5379 11.7005 48.2621 11.7138L48.3102 12.7126ZM52.1495 11.5694C51.8735 11.5767 51.6556 11.8064 51.6629 12.0825C51.6702 12.3585 51.9 12.5764 52.176 12.5691L52.1495 11.5694ZM53.1414 12.546C53.4175 12.54 53.6365 12.3114 53.6306 12.0354C53.6247 11.7593 53.3961 11.5403 53.12 11.5462L53.1414 12.546ZM57.0227 11.5006C56.7466 11.5012 56.5232 11.7256 56.5239 12.0017C56.5245 12.2779 56.7489 12.5012 57.025 12.5006L57.0227 11.5006ZM58.0198 12.5007C58.2959 12.5015 58.5204 12.2782 58.5212 12.0021C58.5219 11.7259 58.2987 11.5015 58.0226 11.5007L58.0198 12.5007ZM61.9959 11.557C61.7199 11.5498 61.4903 11.7678 61.4831 12.0439C61.476 12.3199 61.6939 12.5495 61.97 12.5567L61.9959 11.557ZM62.9459 12.5849C63.2219 12.5938 63.4528 12.3772 63.4616 12.1012C63.4704 11.8252 63.2539 11.5943 62.9779 11.5855L62.9459 12.5849ZM66.9531 11.7641C66.6775 11.748 66.441 11.9585 66.4249 12.2341C66.4088 12.5098 66.6193 12.7463 66.895 12.7624L66.9531 11.7641ZM67.8734 12.8228C68.149 12.8408 68.3869 12.632 68.4049 12.3564C68.4229 12.0809 68.2141 11.8429 67.9385 11.8249L67.8734 12.8228ZM71.9024 12.1418C71.6274 12.1157 71.3834 12.3173 71.3572 12.5922C71.3311 12.8671 71.5327 13.1112 71.8076 13.1373L71.9024 12.1418ZM72.7814 13.2339C73.0561 13.2622 73.3018 13.0625 73.3301 12.7878C73.3584 12.5131 73.1587 12.2675 72.884 12.2392L72.7814 13.2339ZM76.8344 12.713C76.5608 12.6754 76.3086 12.8667 76.271 13.1403C76.2334 13.4139 76.4247 13.6661 76.6982 13.7037L76.8344 12.713ZM77.6678 13.8414C77.941 13.8814 78.1949 13.6924 78.235 13.4192C78.275 13.1459 78.086 12.892 77.8128 12.8519L77.6678 13.8414ZM81.7328 13.5021C81.4613 13.4516 81.2003 13.6308 81.1498 13.9023C81.0994 14.1738 81.2785 14.4347 81.55 14.4852L81.7328 13.5021ZM82.5241 14.6714C82.7951 14.7247 83.0579 14.5482 83.1112 14.2772C83.1644 14.0062 82.9879 13.7434 82.7169 13.6902L82.5241 14.6714ZM86.6016 14.5391C86.3332 14.4743 86.063 14.6394 85.9982 14.9078C85.9334 15.1762 86.0985 15.4464 86.3669 15.5112L86.6016 14.5391ZM87.3207 15.7471C87.5884 15.8149 87.8603 15.6528 87.9281 15.3851C87.9959 15.1175 87.8339 14.8455 87.5662 14.7777L87.3207 15.7471ZM91.4016 15.8441C91.1374 15.7639 90.8581 15.9131 90.7779 16.1774C90.6977 16.4416 90.8469 16.7208 91.1111 16.801L91.4016 15.8441ZM92.0487 17.0917C92.312 17.1751 92.593 17.0292 92.6763 16.7659C92.7597 16.5027 92.6138 16.2217 92.3505 16.1383L92.0487 17.0917ZM96.113 17.4287C95.854 17.333 95.5664 17.4654 95.4707 17.7244C95.375 17.9834 95.5074 18.271 95.7664 18.3667L96.113 17.4287ZM96.6901 18.7141C96.948 18.8128 97.2371 18.6837 97.3358 18.4258C97.4345 18.1679 97.3054 17.8788 97.0475 17.7801L96.6901 18.7141ZM100.73 19.2798C100.477 19.1706 100.183 19.2878 100.073 19.5414C99.9643 19.7951 100.081 20.0892 100.335 20.1983L100.73 19.2798ZM101.238 20.5914C101.491 20.7027 101.786 20.588 101.897 20.3352C102.008 20.0825 101.894 19.7874 101.641 19.6762L101.238 20.5914ZM105.251 21.3162C105 21.2001 104.703 21.3091 104.587 21.5597C104.471 21.8103 104.58 22.1075 104.83 22.2235L105.251 21.3162ZM105.728 22.6397C105.979 22.7558 106.276 22.6467 106.392 22.3961C106.508 22.1455 106.399 21.8483 106.149 21.7323L105.728 22.6397ZM109.742 23.3491C109.488 23.2409 109.195 23.3592 109.087 23.6132C108.978 23.8673 109.097 24.161 109.351 24.2691L109.742 23.3491ZM1.16142 24.4732C1.31582 24.4206 1.47001 24.3672 1.62405 24.3132L1.29331 23.3695C1.14182 23.4226 0.990258 23.475 0.83858 23.5268L1.16142 24.4732ZM5.27734 22.9248C5.57687 22.804 5.87744 22.6817 6.17939 22.558L5.80026 21.6327C5.49974 21.7558 5.20097 21.8774 4.90353 21.9973L5.27734 22.9248ZM9.7705 21.0702C10.0667 20.9478 10.3654 20.8249 10.667 20.7015L10.2884 19.7759C9.98553 19.8998 9.68571 20.0232 9.38868 20.1459L9.7705 21.0702ZM14.2686 19.2767C14.5681 19.1631 14.871 19.0497 15.1776 18.9365L14.8312 17.9984C14.5218 18.1126 14.2162 18.2271 13.9141 18.3416L14.2686 19.2767ZM18.8245 17.6686C19.1284 17.5697 19.4361 17.4714 19.7477 17.3737L19.4485 16.4195C19.1335 16.5183 18.8225 16.6177 18.5152 16.7176L18.8245 17.6686ZM23.4553 16.2976C23.7653 16.2147 24.079 16.1327 24.3965 16.0514L24.1486 15.0826C23.8276 15.1647 23.5105 15.2477 23.1971 15.3315L23.4553 16.2976ZM28.1576 15.1715C28.4683 15.1054 28.7824 15.0402 29.1001 14.9758L28.9016 13.9957C28.5807 14.0607 28.2634 14.1266 27.9495 14.1934L28.1576 15.1715ZM32.9029 14.2795C33.2216 14.2272 33.5436 14.1757 33.8689 14.1252L33.7154 13.137C33.3872 13.188 33.0623 13.2399 32.7408 13.2928L32.9029 14.2795ZM37.6928 13.5959C38.0115 13.557 38.333 13.519 38.6577 13.4818L38.544 12.4883C38.2169 12.5257 37.8927 12.5641 37.5716 12.6033L37.6928 13.5959ZM42.506 13.0979C42.8269 13.0704 43.1505 13.0438 43.477 13.018L43.3983 12.0211C43.0696 12.0471 42.7438 12.0739 42.4207 12.1016L42.506 13.0979ZM47.3331 12.7625C47.6563 12.7451 47.982 12.7284 48.3102 12.7126L48.2621 11.7138C47.9319 11.7297 47.6043 11.7464 47.2791 11.764L47.3331 12.7625ZM52.176 12.5691C52.4955 12.5606 52.8173 12.5529 53.1414 12.546L53.12 11.5462C52.7943 11.5532 52.4708 11.5609 52.1495 11.5694L52.176 12.5691ZM57.025 12.5006C57.189 12.5002 57.3535 12.5 57.5185 12.5V11.5C57.3527 11.5 57.1874 11.5002 57.0227 11.5006L57.025 12.5006ZM57.5185 12.5C57.6862 12.5 57.8533 12.5002 58.0198 12.5007L58.0226 11.5007C57.8551 11.5002 57.6871 11.5 57.5185 11.5V12.5ZM61.97 12.5567C62.2976 12.5652 62.6229 12.5746 62.9459 12.5849L62.9779 11.5855C62.6529 11.575 62.3256 11.5656 61.9959 11.557L61.97 12.5567ZM66.895 12.7624C67.2237 12.7816 67.5498 12.8017 67.8734 12.8228L67.9385 11.8249C67.6126 11.8037 67.2842 11.7834 66.9531 11.7641L66.895 12.7624ZM71.8076 13.1373C72.135 13.1685 72.4596 13.2007 72.7814 13.2339L72.884 12.2392C72.5596 12.2057 72.2324 12.1732 71.9024 12.1418L71.8076 13.1373ZM76.6982 13.7037C77.0245 13.7486 77.3477 13.7945 77.6678 13.8414L77.8128 12.8519C77.4898 12.8046 77.1637 12.7583 76.8344 12.713L76.6982 13.7037ZM81.55 14.4852C81.8783 14.5462 82.203 14.6083 82.5241 14.6714L82.7169 13.6902C82.3924 13.6264 82.0644 13.5637 81.7328 13.5021L81.55 14.4852ZM86.3669 15.5112C86.6887 15.5888 87.0065 15.6675 87.3207 15.7471L87.5662 14.7777C87.2485 14.6972 86.927 14.6176 86.6016 14.5391L86.3669 15.5112ZM91.1111 16.801C91.4278 16.8971 91.7403 16.9941 92.0487 17.0917L92.3505 16.1383C92.0383 16.0395 91.7221 15.9414 91.4016 15.8441L91.1111 16.801ZM95.7664 18.3667C96.0787 18.4821 96.3865 18.598 96.6901 18.7141L97.0475 17.7801C96.7404 17.6626 96.429 17.5455 96.113 17.4287L95.7664 18.3667ZM100.335 20.1983C100.64 20.3297 100.941 20.4608 101.238 20.5914L101.641 19.6762C101.342 19.5445 101.038 19.4123 100.73 19.2798L100.335 20.1983ZM104.83 22.2235C105.133 22.3637 105.433 22.5029 105.728 22.6397L106.149 21.7323C105.853 21.5953 105.554 21.4569 105.251 21.3162L104.83 22.2235ZM109.351 24.2691C109.504 24.3342 109.656 24.3984 109.808 24.4616L110.192 23.5384C110.043 23.4763 109.893 23.4131 109.742 23.3491L109.351 24.2691Z" fill="white" fill-opacity="0.9"/>
<path d="M52 22L54 22L59 13.5L64.5 13.5C65.33 13.5 66 12.83 66 12C66 11.17 65.33 10.5 64.5 10.5L59 10.5L54 2L52 2L54.5 10.5L49 10.5L47.5 8L46 8L47 12L46 16L47.5 16L49 13.5L54.5 13.5L52 22Z" fill="white"/>
</svg>
