<svg viewBox="0 0 30 30" fill="current" xmlns="http://www.w3.org/2000/svg">
<path fill-rule="evenodd" clip-rule="evenodd" d="M13.792 21.6917L15.0003 22.7917L16.2087 21.7L16.2416 21.6701C20.5148 17.7869 23.3337 15.2253 23.3337 12.0833C23.3337 9.51667 21.317 7.5 18.7503 7.5C17.8173 7.5 16.9085 7.77946 16.137 8.26291C15.7095 8.53081 15.3242 8.86134 15.0003 9.24167C14.6765 8.86134 14.2911 8.53081 13.8636 8.26291C13.0922 7.77946 12.1833 7.5 11.2503 7.5C8.68366 7.5 6.66699 9.51667 6.66699 12.0833C6.66699 15.2307 9.49568 17.7958 13.7814 21.6821L13.792 21.6917ZM15.1999 20.5899C15.2004 20.5894 15.2009 20.5889 15.2015 20.5884C17.377 18.6114 19.0608 17.0782 20.2191 15.6611C21.3605 14.2648 21.8337 13.1656 21.8337 12.0833C21.8337 10.3451 20.4886 9 18.7503 9C17.7545 9 16.7753 9.4709 16.1424 10.2142C15.8574 10.5488 15.4399 10.7417 15.0003 10.7417C14.5607 10.7417 14.1433 10.5488 13.8583 10.2142C13.2254 9.4709 12.2461 9 11.2503 9C9.51209 9 8.16699 10.3451 8.16699 12.0833C8.16699 13.1656 8.64019 14.2647 9.78119 15.6597C10.9394 17.0757 12.6236 18.6073 14.7996 20.5805L14.8018 20.5824L15.0042 20.7667L15.1999 20.5899Z" />
</svg>
