<svg viewBox="0 0 160 160" fill="none" xmlns="http://www.w3.org/2000/svg">
<path d="M34.9897 44.6168C39.1671 44.6168 71.7906 50.3358 87.5801 53.1953L66.3202 75.9472C57.3686 71.2228 37.899 60.9534 31.6329 57.6711C23.8003 53.5683 22.6813 51.7034 25.2922 49.0926C27.9031 46.4817 29.768 44.6168 34.9897 44.6168Z" fill="#5A81FF"/>
<path d="M114.81 124.433C114.81 120.256 109.09 87.633 106.23 71.8437L83.4794 93.1028C88.2039 102.054 98.4735 121.524 101.756 127.79C105.859 135.622 107.724 136.741 110.334 134.13C112.945 131.52 114.81 129.655 114.81 124.433Z" fill="#5A81FF"/>
<path d="M94.0037 44.6997C103.701 35.0022 111.737 30.3569 120.402 39.0221L50.655 108.77C50.0898 108.205 48.5904 108.197 43.3385 107.421C41.853 107.201 26.5534 105.369 24.5839 105.077C20.8703 104.529 20.0705 102.056 22.3084 99.8181L26.7842 95.3423C30.514 91.6125 31.2905 91.1607 32.7594 90.8741C34.6318 90.5086 41.0027 90.1658 49.9994 90.211C49.9994 90.211 86.2457 52.4577 94.0037 44.6997Z" fill="#BDCFFF"/>
<path d="M114.725 65.42C124.422 55.7229 129.067 47.6871 120.402 39.0218L50.6574 108.767C51.2225 109.332 51.2301 110.831 52.0063 116.083C52.2258 117.568 54.0589 132.868 54.35 134.837C54.8988 138.551 57.3715 139.351 59.6093 137.113L64.085 132.637C67.8146 128.908 68.2663 128.131 68.553 126.662C68.9184 124.79 69.2611 118.419 69.2157 109.423C69.2157 109.423 106.968 73.1777 114.725 65.42Z" fill="#8FAAFF"/>
<rect x="103.246" y="44.2432" width="3.16485" height="43.253" rx="1.58243" transform="rotate(45 103.246 44.2432)" fill="white"/>
<path fill-rule="evenodd" clip-rule="evenodd" d="M80.9614 16.0024C80.7816 18.8752 79.9918 25.0466 78.2692 26.7692C76.5461 28.4923 71.8077 29.2821 69.6538 29.4615C71.8077 29.8205 76.5461 30.9692 78.2692 32.6923C79.9918 34.4149 80.7816 40.5863 80.9614 43.4591V44C81.1408 41.0719 81.9306 34.7765 83.6537 33.0196C85.3767 31.2627 90.1152 30.0915 92.269 29.7255C90.1152 29.5425 85.3767 28.7373 83.6537 26.9804C81.9311 25.224 81.1413 18.9316 80.9615 16.0025V16C80.9615 16.0004 80.9615 16.0008 80.9614 16.0012C80.9614 16.0008 80.9614 16.0004 80.9614 16V16.0024Z" fill="#FFD953"/>
<path fill-rule="evenodd" clip-rule="evenodd" d="M126.461 95.0048C126.332 97.0581 125.768 101.462 124.538 102.692C123.307 103.923 119.923 104.487 118.384 104.615C119.923 104.872 123.307 105.692 124.538 106.923C125.768 108.153 126.332 112.557 126.461 114.61V115C126.589 112.908 127.153 108.412 128.384 107.157C129.615 105.902 132.999 105.065 134.538 104.804C132.999 104.673 129.615 104.098 128.384 102.843C127.154 101.589 126.59 97.0985 126.461 95.0049V95C126.461 95.0008 126.461 95.0016 126.461 95.0024C126.461 95.0016 126.461 95.0008 126.461 95V95.0048Z" fill="#FFD953"/>
<path fill-rule="evenodd" clip-rule="evenodd" d="M38.3265 68.0048C38.217 69.7505 37.7374 73.4933 36.6922 74.5385C35.646 75.5846 32.7691 76.0641 31.4614 76.1731C32.7691 76.391 35.646 77.0885 36.6922 78.1346C37.7374 79.1798 38.217 82.9226 38.3265 84.6683V85C38.4355 83.2222 38.915 79.4 39.9611 78.3333C41.0073 77.2667 43.8842 76.5556 45.1919 76.3333C43.8842 76.2222 41.0073 75.7333 39.9611 74.6667C38.9159 73.601 38.4364 69.7848 38.3268 68.0049V68C38.3268 68.0008 38.3267 68.0016 38.3267 68.0024C38.3266 68.0016 38.3266 68.0008 38.3265 68V68.0048Z" fill="#FFD953"/>
</svg>
