<svg viewBox="0 0 160 160" fill="none" xmlns="http://www.w3.org/2000/svg">
<path d="M34.9892 44.6168C39.1666 44.6168 71.7901 50.3358 87.5796 53.1953L66.3197 75.9472C57.3681 71.2228 37.8985 60.9534 31.6324 57.6711C23.7998 53.5683 22.6809 51.7034 25.2917 49.0926C27.9026 46.4817 29.7675 44.6168 34.9892 44.6168Z" fill="#8595AA"/>
<path d="M114.809 124.433C114.809 120.256 109.09 87.633 106.23 71.8437L83.4789 93.1028C88.2035 102.054 98.4731 121.524 101.755 127.79C105.858 135.622 107.723 136.741 110.334 134.13C112.945 131.52 114.809 129.655 114.809 124.433Z" fill="#8595AA"/>
<path fill-rule="evenodd" clip-rule="evenodd" d="M120.403 39.0221C129.068 47.6873 124.423 55.7231 114.726 65.4202C106.968 73.1779 69.2164 109.423 69.2164 109.423C69.2618 118.419 68.9191 124.79 68.5537 126.662C68.2671 128.131 67.8153 128.908 64.0857 132.637L59.6101 137.113C57.3723 139.351 54.8996 138.551 54.3507 134.837C54.1949 133.783 53.5975 128.911 53.0421 124.382C52.5597 120.449 52.1091 116.774 52.007 116.083C51.7881 114.602 51.6303 113.419 51.5039 112.471C51.1822 110.06 51.0639 109.173 50.6582 108.767L50.6552 108.77C50.2495 108.364 49.3623 108.246 46.9509 107.924C46.0033 107.798 44.8203 107.64 43.3387 107.421C42.6483 107.319 38.9734 106.869 35.0398 106.386C30.5105 105.831 25.6382 105.234 24.5842 105.078C20.8705 104.529 20.0707 102.056 22.3086 99.8183L26.7844 95.3425C30.5142 91.6127 31.2908 91.161 32.7596 90.8743C34.6321 90.5089 41.0029 90.166 49.9997 90.2112C49.9997 90.2112 86.2459 52.458 94.0039 44.7C103.701 35.0025 111.737 30.3572 120.403 39.0223L120.403 39.0221Z" fill="#C4CEDA"/>
<rect x="103.245" y="44.2432" width="3.16485" height="43.253" rx="1.58243" transform="rotate(45 103.245 44.2432)" fill="white"/>
</svg>
