<svg viewBox="0 0 80 18" fill="#FFD953" xmlns="http://www.w3.org/2000/svg">
<path d="M49.0414 8.25174C49.0414 8.97206 48.8405 9.63698 48.4374 10.2465C48.0343 10.856 47.3694 11.32 46.4427 11.6372L48.5663 17.1103H44.484L42.7981 11.8035H42.722L41.5916 17.1103H37.6382L40.1094 5.48682H44.9231C45.4841 5.48682 46.0147 5.52283 46.5161 5.59625C47.0162 5.6572 47.4498 5.79157 47.8155 5.99935C48.1936 6.19467 48.4928 6.47587 48.7117 6.84157C48.932 7.19619 49.0414 7.66579 49.0414 8.25174ZM43.8675 10.4127C44.1848 10.4127 44.4535 10.3088 44.6724 10.101C44.9037 9.88077 45.0879 9.61896 45.2209 9.31421C45.3678 9.00946 45.4716 8.68532 45.5326 8.34455C45.5935 7.98993 45.624 7.68518 45.624 7.42891C45.624 7.11169 45.5686 6.84296 45.4592 6.62409C45.3497 6.39276 45.1115 6.2764 44.7458 6.2764H43.9216L43.0059 10.4127H43.8675Z" />
<path d="M62.3327 17.1103H58.0496L57.7933 14.1999H54.4064L53.1071 17.1103H51.3312L56.7308 5.48682H61.0694L62.3327 17.1103ZM55.0118 12.8646H57.6659L57.2448 7.88604L55.0118 12.8646Z" />
<path d="M67.3279 17.1103H63.6127L65.2777 9.23943H69.0303L67.3279 17.1103ZM69.5068 6.84159C69.5068 7.12279 69.4459 7.36659 69.324 7.57437C69.2146 7.78216 69.0622 7.95808 68.8669 8.10492C68.684 8.25175 68.4707 8.36119 68.2269 8.43461C67.9831 8.50802 67.7324 8.54404 67.4761 8.54404C66.9885 8.54404 66.5798 8.42768 66.2502 8.19635C65.9205 7.96501 65.7556 7.59792 65.7556 7.09785C65.7556 6.82912 65.811 6.59086 65.9205 6.38446C66.0299 6.16421 66.1767 5.98828 66.3596 5.85392C66.5549 5.70708 66.7738 5.59765 67.019 5.52423C67.2752 5.45081 67.537 5.41479 67.8058 5.41479C68.2823 5.41479 68.684 5.53116 69.0137 5.76249C69.342 5.99382 69.5068 6.35399 69.5068 6.84159Z" />
<path d="M80 8.25174C80 8.97206 79.7991 9.63698 79.396 10.2465C78.9929 10.856 78.328 11.32 77.4013 11.6372L79.5249 17.1103H75.4426L73.8316 12.0403H73.6307L72.5502 17.1103H68.5968L71.068 5.48682H75.8817C76.4427 5.48682 76.9733 5.52283 77.4747 5.59625C77.9748 5.6572 78.4084 5.79157 78.7741 5.99935C79.1522 6.19467 79.4515 6.47587 79.6703 6.84157C79.8906 7.19619 80 7.66579 80 8.25174ZM74.7292 10.8684C75.0464 10.8684 75.3152 10.7646 75.534 10.5568C75.7654 10.3365 75.9496 10.0747 76.0826 9.76996C76.2294 9.46521 76.3333 9.14106 76.3942 8.80029C76.4552 8.44567 76.4857 8.14092 76.4857 7.88465C76.4857 7.56744 76.4303 7.2987 76.3208 7.07983C76.2114 6.8485 75.9731 6.73214 75.6074 6.73214H74.7832L73.8676 10.8684H74.7292Z" />
<path d="M39.2755 5.49243L38.9167 7.16856H31.6623C30.7411 7.16856 29.9861 6.415 29.9861 5.49243H39.2755Z" />
<path d="M32.5502 15.135L32.4906 15.4106H36.9913L36.656 17.1103H27.3791L28.0621 13.9381L28.0745 13.8426C28.6729 11.1012 31.1151 9.04272 34.0476 9.04272H37.6382L37.2794 10.6939H33.5088L32.5502 15.135Z" />
<path d="M28.1798 5.49107L27.8141 7.16858H11.8631L9.30739 3.40491C8.63417 2.40892 7.6645 1.82989 6.6422 1.82989L8.94169 7.16997H2.11249L3.63624 0H10.7217C11.4199 0 12.118 0.0595669 12.7996 0.162074C13.4977 0.25627 14.1197 0.443276 14.6558 0.73279C15.2182 1.01399 15.6601 1.42264 16.0008 1.9421C16.3416 2.44494 16.512 3.10015 16.512 3.90913C16.512 4.42859 16.4358 4.8968 16.2737 5.31376C16.2488 5.37332 16.2308 5.43288 16.2058 5.49245H28.1798V5.49107Z" />
<path d="M26.5355 9.04289V9.0512L26.1781 10.6941H22.4061L21.4517 15.131L21.3922 15.4122H25.8886L25.5562 17.1063H16.282L16.9636 13.9383L16.9719 13.8441C17.5675 11.1609 19.91 9.126 22.7718 9.04981C22.8314 9.0415 22.891 9.0415 22.9505 9.0415H26.5355V9.04289Z" />
<path d="M15.8997 11.5292C15.8997 12.3382 15.7293 13.0876 15.3886 13.7691C15.0395 14.4507 14.5283 15.0463 13.8468 15.5491C13.1819 16.034 12.3563 16.4177 11.3686 16.7072C10.3976 16.9801 9.27414 17.1075 8.00526 17.1075H0L1.71215 9.05103H8.79762L5.58665 15.412C6.60895 15.412 7.91107 14.833 8.60091 13.837C9.31569 12.823 11.0542 10.4224 12.0501 9.05103H15.0907C15.3124 9.2976 15.4827 9.61343 15.6268 9.99576C15.8055 10.4141 15.8997 10.9239 15.8997 11.5292Z" />
</svg>
