<svg viewBox="0 0 36 36" fill="none" xmlns="http://www.w3.org/2000/svg">
<path d="M18 7.6C20.91 7.6 23.28 9.97 23.28 12.88C23.28 15.79 20.91 18.16 18 18.16C15.09 18.16 12.72 15.79 12.72 12.88C12.72 9.97 15.09 7.6 18 7.6ZM18 6C14.2 6 11.12 9.08 11.12 12.88C11.12 16.68 14.2 19.76 18 19.76C21.8 19.76 24.88 16.68 24.88 12.88C24.88 9.08 21.8 6 18 6Z" fill="white" fill-opacity="0.5"/>
<path d="M28.75 29C28.75 24.5 23.07 22 18 22C12.93 22 7.25 24.5 7.25 29H28.75Z" stroke="white" stroke-opacity="0.5" stroke-width="1.6" stroke-miterlimit="10" stroke-linecap="round" stroke-linejoin="round"/>
</svg>
