<svg viewBox="0 0 36 36" fill="currentColor" xmlns="http://www.w3.org/2000/svg">
<path d="M18.0012 17.9492C17.5612 17.9492 17.2012 18.3092 17.2012 18.7492V25.2492C17.2012 25.6892 17.5612 26.0492 18.0012 26.0492C18.4412 26.0492 18.8012 25.6892 18.8012 25.2492V18.7492C18.8012 18.3092 18.4412 17.9492 18.0012 17.9492Z" fill="white" fill-opacity="0.5"/>
<path d="M21.2512 21.1992C20.8112 21.1992 20.4512 21.5592 20.4512 21.9992V25.2492C20.4512 25.6892 20.8112 26.0492 21.2512 26.0492C21.6912 26.0492 22.0512 25.6892 22.0512 25.2492V21.9992C22.0512 21.5592 21.6912 21.1992 21.2512 21.1992Z" fill="white" fill-opacity="0.5"/>
<path d="M27.0704 16.2498H25.0004V15.3698C26.1404 14.6198 26.8904 13.3398 26.8904 11.8898C26.8904 9.87977 25.4604 8.19977 23.5704 7.80977C22.7104 6.68977 21.3604 6.00977 19.9304 6.00977C19.0104 6.00977 18.1204 6.28977 17.3704 6.79977C16.7504 6.55977 16.1004 6.43977 15.4304 6.43977C13.4104 6.43977 11.5704 7.58977 10.6304 9.32977C8.78039 9.75977 7.40039 11.4198 7.40039 13.3898C7.40039 14.5398 7.88039 15.6298 8.70039 16.3998C8.75039 17.9398 9.68039 19.2398 11.0004 19.8598V27.7898C11.0004 29.0098 11.9904 29.9998 13.2104 29.9998H22.8004C24.0204 29.9998 25.0104 29.0098 25.0104 27.7898V25.9998H27.0804C28.1104 25.9998 28.9504 25.1598 28.9504 24.1298V18.1198C28.9304 17.0898 28.1004 16.2498 27.0704 16.2498ZM10.3004 16.2698V15.6098C9.53039 15.1598 9.00039 14.3398 9.00039 13.3798C9.00039 11.9598 10.1504 10.8098 11.5704 10.8098C11.6304 10.8098 11.6804 10.8198 11.7304 10.8298C12.1904 9.21977 13.6604 8.02977 15.4204 8.02977C16.2304 8.02977 16.9804 8.27977 17.6104 8.70977C18.1604 8.03977 18.9904 7.59977 19.9204 7.59977C21.1104 7.59977 22.1404 8.29976 22.6204 9.30976H22.7104C24.1304 9.30976 25.2804 10.4598 25.2804 11.8798C25.2804 13.2998 24.1304 14.4498 22.7104 14.4498H18.2804C17.5704 15.2298 16.5604 15.7398 15.4204 15.7398C15.3004 15.7398 15.1804 15.7298 15.0604 15.7098V16.2598C15.0604 17.5798 13.9904 18.6398 12.6804 18.6398C11.3704 18.6398 10.3004 17.5798 10.3004 16.2698ZM23.4004 25.9998V27.7898C23.4004 28.1198 23.1304 28.3998 22.7904 28.3998H13.2004C12.8704 28.3998 12.5904 28.1298 12.5904 27.7898V20.2398C12.6204 20.2398 12.6504 20.2498 12.6704 20.2498C13.1104 20.2498 13.5404 20.1698 13.9404 20.0398V25.2498C13.9404 25.6898 14.3004 26.0498 14.7404 26.0498C15.1804 26.0498 15.5404 25.6898 15.5404 25.2498V19.0198C16.0204 18.5198 16.3704 17.9098 16.5404 17.2198C17.4104 17.0298 18.2304 16.6298 18.9204 16.0498H22.7104C22.9404 16.0498 23.1704 16.0198 23.3904 15.9798V16.2398V25.9998H23.4004ZM27.3304 24.1298C27.3304 24.2798 27.2104 24.3998 27.0604 24.3998H25.0004V17.8498H27.0704C27.2204 17.8498 27.3404 17.9698 27.3404 18.1198V24.1298H27.3304Z" fill="white" fill-opacity="0.5"/>
</svg>
