<svg viewBox="0 0 36 36" fill="none" xmlns="http://www.w3.org/2000/svg">
<path d="M17.9992 17.95C17.5592 17.95 17.1992 18.31 17.1992 18.75V25.25C17.1992 25.69 17.5592 26.0499 17.9992 26.0499C18.4392 26.0499 18.7992 25.69 18.7992 25.25V18.75C18.7992 18.31 18.4392 17.95 17.9992 17.95Z" fill="#3E3BE6"/>
<path d="M21.2492 21.2C20.8092 21.2 20.4492 21.56 20.4492 22V25.25C20.4492 25.69 20.8092 26.0499 21.2492 26.0499C21.6892 26.0499 22.0492 25.69 22.0492 25.25V22C22.0492 21.56 21.6892 21.2 21.2492 21.2Z" fill="#3E3BE6"/>
<path d="M27.0684 16.25H24.9984V15.37C26.1384 14.62 26.8884 13.34 26.8884 11.89C26.8884 9.88 25.4584 8.2 23.5684 7.81C22.7084 6.68 21.3584 6 19.9284 6C19.0084 6 18.1184 6.28 17.3684 6.79C16.7484 6.55 16.0984 6.43 15.4284 6.43C13.4084 6.43 11.5684 7.58 10.6284 9.32C8.77844 9.75 7.39844 11.41 7.39844 13.38C7.39844 14.53 7.87844 15.62 8.69844 16.39C8.74844 17.93 9.67844 19.23 10.9984 19.85V27.78C10.9984 29 11.9884 29.99 13.2084 29.99H22.7984C24.0184 29.99 25.0084 29 25.0084 27.78V26H27.0784C28.1084 26 28.9484 25.16 28.9484 24.13V18.12C28.9284 17.09 28.0984 16.25 27.0684 16.25ZM23.3984 16.25V26V27.79C23.3984 28.12 23.1284 28.4 22.7884 28.4H13.1984C12.8684 28.4 12.5884 28.13 12.5884 27.79V20.24C12.6184 20.24 12.6484 20.25 12.6684 20.25C13.1084 20.25 13.5384 20.17 13.9384 20.04V25.25C13.9384 25.69 14.2984 26.05 14.7384 26.05C15.1784 26.05 15.5384 25.69 15.5384 25.25V19.02C16.0184 18.52 16.3684 17.91 16.5384 17.22C17.4084 17.03 18.2284 16.63 18.9184 16.05H22.7084C22.9384 16.05 23.1684 16.02 23.3884 15.98V16.25H23.3984ZM27.3284 24.13C27.3284 24.28 27.2084 24.4 27.0584 24.4H24.9984V17.85H27.0684C27.2184 17.85 27.3384 17.97 27.3384 18.12V24.13H27.3284Z" fill="#3E3BE6"/>
</svg>
