<svg viewBox="0 0 36 36" fill="currentColor" xmlns="http://www.w3.org/2000/svg">
<path d="M12.65 30.5505C12.55 30.5505 12.45 30.5305 12.36 30.4905C12.06 30.3705 11.86 30.0905 11.86 29.7705L11.66 23.2105L5.1 23.0105C4.78 23.0005 4.5 22.8005 4.38 22.5105C4.26 22.2205 4.33 21.8805 4.56 21.6505L7.93 18.2805C8.06 18.1505 8.23 18.0705 8.42 18.0505L13.07 17.6105L14.97 15.4605L5.43 9.92048C5.22 9.80048 5.07 9.58048 5.04 9.33048C5.01 9.08048 5.09 8.84048 5.27 8.66048L7.24 6.69048C7.45 6.48048 7.76 6.40048 8.05 6.49048L19.61 10.2205L22.27 7.21048C23.79 5.69048 26.2 5.69048 27.69 7.17048C29.17 8.65048 29.17 11.0705 27.69 12.5505L24.65 15.2405L28.38 26.8005C28.47 27.0905 28.4 27.4005 28.18 27.6105L26.2 29.5805C26.02 29.7505 25.77 29.8405 25.53 29.8105C25.28 29.7805 25.07 29.6305 24.94 29.4205L19.41 19.8805L17.26 21.7805L16.82 26.4305C16.8 26.6205 16.72 26.7905 16.59 26.9205L13.22 30.2905C13.06 30.4705 12.86 30.5505 12.65 30.5505ZM7 21.4805L12.46 21.6505C12.88 21.6605 13.22 22.0005 13.24 22.4305L13.41 27.8905L15.26 26.0405L15.7 21.3605C15.72 21.1605 15.81 20.9705 15.97 20.8405L19.08 18.0805C19.26 17.9205 19.5 17.8505 19.74 17.8905C19.98 17.9305 20.18 18.0705 20.3 18.2805L25.8 27.7605L26.69 26.8705L22.95 15.2805C22.85 14.9805 22.94 14.6505 23.18 14.4405L26.58 11.4305C27.4 10.6005 27.4 9.20048 26.54 8.34048C25.68 7.48048 24.28 7.48048 23.42 8.34048L20.44 11.7005C20.23 11.9405 19.9 12.0305 19.6 11.9305L8.01 8.19048L7.12 9.08048L16.6 14.5805C16.81 14.7005 16.95 14.9105 16.99 15.1405C17.03 15.3805 16.96 15.6205 16.8 15.8005L14.04 18.9105C13.91 19.0605 13.72 19.1605 13.52 19.1805L8.84 19.6205L7 21.4805Z" fill="white" fill-opacity="0.5"/>
</svg>
