<svg viewBox="0 0 36 36" fill="none" xmlns="http://www.w3.org/2000/svg">
<path d="M18.0019 18.96C21.3598 18.96 24.0819 16.2379 24.0819 12.88C24.0819 9.52216 21.3598 6.80005 18.0019 6.80005C14.644 6.80005 11.9219 9.52216 11.9219 12.88C11.9219 16.2379 14.644 18.96 18.0019 18.96Z" fill="#3E3BE6"/>
<path d="M18.0011 7.6C20.9111 7.6 23.2811 9.97 23.2811 12.88C23.2811 15.79 20.9111 18.16 18.0011 18.16C15.0911 18.16 12.7211 15.79 12.7211 12.88C12.7211 9.97 15.0911 7.6 18.0011 7.6ZM18.0011 6C14.2011 6 11.1211 9.08 11.1211 12.88C11.1211 16.68 14.2011 19.76 18.0011 19.76C21.8011 19.76 24.8811 16.68 24.8811 12.88C24.8811 9.08 21.8011 6 18.0011 6Z" fill="#3E3BE6"/>
<path d="M17.9992 21.2C12.3192 21.2 6.44922 24.12 6.44922 29C6.44922 29.4399 6.80922 29.7999 7.24922 29.7999H28.7492C29.1892 29.7999 29.5492 29.4399 29.5492 29C29.5492 24.12 23.6792 21.2 17.9992 21.2Z" fill="#3E3BE6"/>
</svg>
