<svg viewBox="0 0 36 36" fill="none" xmlns="http://www.w3.org/2000/svg">
<path d="M24.6381 15.27L27.6781 12.58C29.1581 11.1 29.1581 8.68002 27.6781 7.20002C26.1981 5.72002 23.7781 5.72002 22.2581 7.24002L19.5981 10.25L8.04814 6.51002C7.75814 6.42002 7.44814 6.49002 7.23814 6.71002L5.25814 8.68002C5.08814 8.85002 4.99814 9.10002 5.03814 9.35002C5.06814 9.60002 5.21814 9.81002 5.42814 9.94002L14.9681 15.48L13.0681 17.63L8.41814 18.07C8.22814 18.09 8.05814 18.17 7.92814 18.3L4.55814 21.67C4.32814 21.9 4.25814 22.23 4.37814 22.53C4.49814 22.83 4.77814 23.03 5.09814 23.03L11.6581 23.23L11.8581 29.79C11.8681 30.11 12.0681 30.39 12.3581 30.51C12.4581 30.55 12.5581 30.57 12.6481 30.57C12.8581 30.57 13.0581 30.49 13.2181 30.34L16.5881 26.97C16.7181 26.84 16.7981 26.67 16.8181 26.48L17.2581 21.83L19.4081 19.93L24.9381 29.47C25.0581 29.68 25.2781 29.83 25.5281 29.86C25.7681 29.89 26.0181 29.81 26.1981 29.63L28.1781 27.66C28.3881 27.45 28.4681 27.13 28.3781 26.85L24.6381 15.27Z" fill="#3E3BE6"/>
</svg>
