<svg viewBox="0 0 30 30" fill="none" xmlns="http://www.w3.org/2000/svg">
<path fill-rule="evenodd" clip-rule="evenodd" d="M22.9602 24.9093C22.5975 25.1481 22.1149 24.8879 22.1149 24.4537V22.4833C19.5868 22.4517 17.2564 21.0787 15.9623 18.859L12.1809 12.3727C11.257 10.788 9.58885 9.82075 7.7915 9.82075H3.07666C2.47558 9.82075 2 9.32421 2 8.72629C2 8.12837 2.47558 7.63184 3.07666 7.63184H7.7915C10.3539 7.63184 12.724 9.01085 14.0333 11.2567L17.8148 17.743C18.7233 19.3014 20.3517 20.2627 22.1149 20.2941V18.3251C22.1149 17.8909 22.5975 17.6307 22.9602 17.8695L27.6151 20.9338C27.9425 21.1493 27.9425 21.6295 27.6151 21.845L22.9602 24.9093Z" fill="url(#paint0_linear_2538_17628)"/>
<path fill-rule="evenodd" clip-rule="evenodd" d="M22.9602 5.09076C22.5975 4.85202 22.1149 5.11214 22.1149 5.54633V7.51678C19.5868 7.5484 17.2564 8.92134 15.9623 11.1411L12.1809 17.6274C11.257 19.2121 9.58885 20.1793 7.7915 20.1793H3.07666C2.47558 20.1793 2 20.6759 2 21.2738C2 21.8717 2.47558 22.3682 3.07666 22.3682H7.7915C10.3539 22.3682 12.724 20.9892 14.0333 18.7434L17.8148 12.2571C18.7233 10.6987 20.3517 9.73737 22.1149 9.70593V11.675C22.1149 12.1092 22.5975 12.3693 22.9602 12.1306L27.6151 9.06624C27.9425 8.85074 27.9425 8.37061 27.6151 8.15511L22.9602 5.09076Z" fill="#FFD953"/>
<defs>
<linearGradient id="paint0_linear_2538_17628" x1="17.4536" y1="18.0301" x2="0.484939" y2="7.72771" gradientUnits="userSpaceOnUse">
<stop stop-color="white"/>
<stop offset="1" stop-color="white" stop-opacity="0.4"/>
</linearGradient>
</defs>
</svg>
