<svg viewBox="0 0 10 10" fill="current" xmlns="http://www.w3.org/2000/svg">
<path fill-rule="evenodd" clip-rule="evenodd" d="M8.83202 1.98231C9.0532 1.7576 9.0532 1.39416 8.83202 1.16945C8.60965 0.943518 8.24818 0.943517 8.02581 1.16945L4.98054 4.26338L1.97014 1.20487C1.74777 0.978939 1.38631 0.978939 1.16393 1.20487C0.942752 1.42958 0.942752 1.79302 1.16393 2.01773L4.1774 5.07936L1.32012 7.98231C1.09894 8.20702 1.09894 8.57046 1.32012 8.79518C1.54249 9.0211 1.90396 9.0211 2.12633 8.79518L4.98054 5.89534L7.86962 8.8306C8.092 9.05653 8.45346 9.05653 8.67584 8.8306C8.89701 8.60588 8.89701 8.24244 8.67584 8.01773L5.78369 5.07936L8.83202 1.98231Z" />
</svg>
