<svg width="20" height="20" viewBox="0 0 20 20" fill="none" xmlns="http://www.w3.org/2000/svg">
<circle cx="10" cy="10" r="9" fill="white" fill-opacity="0.2"/>
<path fill-rule="evenodd" clip-rule="evenodd" d="M13.8342 6.98234C14.0554 6.75762 14.0554 6.39417 13.8342 6.16945C13.6118 5.94352 13.2504 5.94352 13.028 6.16945L9.98261 9.26348L6.97213 6.20487C6.74974 5.97894 6.38827 5.97894 6.16589 6.20487C5.9447 6.42959 5.9447 6.79304 6.16589 7.01776L9.17945 10.0795L6.32208 12.9825C6.1009 13.2072 6.1009 13.5707 6.32208 13.7954C6.54446 14.0213 6.90594 14.0213 7.12832 13.7954L9.98261 10.8955L12.8718 13.8308C13.0942 14.0568 13.4556 14.0568 13.678 13.8308C13.8992 13.6061 13.8992 13.2427 13.678 13.0179L10.7858 10.0795L13.8342 6.98234Z" fill="white"/>
</svg>
